<svg width="589" height="336" xmlns="http://www.w3.org/2000/svg" xmlns:xlink="http://www.w3.org/1999/xlink" xml:space="preserve" overflow="hidden"><g><g><g><g><g><path d="M111.026 26.4314 109.848 26.4314 109.848 29.5972 108.744 29.5972 108.744 21.8666 111.689 21.8666C113.162 21.8666 114.119 22.8974 114.119 24.2226 114.119 25.327 113.382 26.2105 112.204 26.4314L114.045 29.7445 112.793 29.7445 111.026 26.4314ZM111.542 25.4742C112.425 25.4742 113.014 24.9589 113.014 24.149 113.014 23.3391 112.425 22.8237 111.542 22.8237L109.922 22.8237 109.922 25.4742 111.542 25.4742ZM120.451 28.1248C120.156 29.0819 119.272 29.8181 118.094 29.8181 116.696 29.8181 115.444 28.7874 115.444 26.9467 115.444 25.2534 116.622 24.149 118.021 24.149 119.641 24.149 120.598 25.2534 120.598 26.9467L120.598 27.3149 116.622 27.3149C116.622 28.272 117.358 28.9346 118.242 28.9346 119.125 28.9346 119.567 28.4929 119.714 27.8302L120.451 28.1248ZM119.42 26.4314C119.42 25.6951 118.904 25.1061 117.947 25.1061 117.064 25.1061 116.548 25.7687 116.475 26.4314L119.42 26.4314ZM122.365 29.6709 122.365 21.6458 123.396 21.6458 123.396 29.6709 122.365 29.6709ZM130.316 28.1248C130.022 29.0819 129.138 29.8181 127.96 29.8181 126.561 29.8181 125.31 28.7874 125.31 26.9467 125.31 25.2534 126.488 24.149 127.813 24.149 129.433 24.149 130.39 25.2534 130.39 26.9467L130.39 27.3149 126.414 27.3149C126.414 28.272 127.15 28.9346 128.034 28.9346 128.917 28.9346 129.359 28.4929 129.506 27.8302L130.316 28.1248ZM129.286 26.4314C129.286 25.6951 128.77 25.1061 127.813 25.1061 126.929 25.1061 126.414 25.7687 126.34 26.4314L129.286 26.4314ZM133.556 26.6523 134.955 26.4314C135.249 26.3577 135.396 26.2105 135.396 26.0632 135.396 25.5479 135.028 25.1061 134.218 25.1061 133.482 25.1061 133.114 25.5479 133.04 26.2105L132.01 25.9896C132.157 24.9589 133.04 24.2962 134.218 24.2962 135.838 24.2962 136.427 25.1798 136.427 26.2105L136.427 28.861C136.427 29.3027 136.501 29.5972 136.501 29.7445L135.47 29.7445C135.47 29.5972 135.396 29.3764 135.396 29.0083 135.176 29.3764 134.66 29.8917 133.703 29.8917 132.599 29.8917 131.936 29.1555 131.936 28.272 131.936 27.3149 132.599 26.7259 133.556 26.6523ZM135.396 27.3885 135.396 27.1676 133.777 27.3885C133.335 27.4621 133.04 27.683 133.04 28.1984 133.04 28.5665 133.335 28.9346 133.924 28.9346 134.66 28.9346 135.396 28.5665 135.396 27.3885ZM139.004 27.9775C139.078 28.5665 139.519 28.9346 140.256 28.9346 140.845 28.9346 141.139 28.6401 141.139 28.1984 141.139 27.9039 140.918 27.6094 140.477 27.5358L139.593 27.3149C138.783 27.1676 138.268 26.5786 138.268 25.8424 138.268 24.9589 139.151 24.149 140.182 24.149 141.654 24.149 142.096 25.1061 142.17 25.5479L141.286 25.916C141.213 25.6215 140.992 25.0325 140.182 25.0325 139.667 25.0325 139.298 25.4006 139.298 25.7687 139.298 26.0632 139.519 26.3577 139.887 26.4314L140.771 26.6523C141.728 26.8731 142.243 27.4621 142.243 28.1984 142.243 28.9346 141.581 29.8181 140.329 29.8181 138.857 29.8181 138.268 28.861 138.194 28.272L139.004 27.9775ZM148.723 28.1248C148.428 29.0819 147.544 29.8181 146.367 29.8181 144.968 29.8181 143.716 28.7874 143.716 26.9467 143.716 25.2534 144.894 24.149 146.293 24.149 147.913 24.149 148.87 25.2534 148.87 26.9467L148.87 27.3149 144.894 27.3149C144.894 28.272 145.63 28.9346 146.514 28.9346 147.397 28.9346 147.839 28.4929 147.986 27.8302L148.723 28.1248ZM147.618 26.4314C147.618 25.6951 147.103 25.1061 146.146 25.1061 145.262 25.1061 144.747 25.7687 144.673 26.4314L147.618 26.4314Z" fill="#404040" fill-rule="nonzero" fill-opacity="1" transform="scale(1 1.00002)"/><path d="M107.124 6.84713 177.952 6.84713 177.952 43.6596 107.124 43.6596Z" stroke="#404040" stroke-width="2.945" stroke-linecap="round" stroke-linejoin="round" stroke-miterlimit="10" stroke-opacity="1" fill="#B18BE8" fill-rule="nonzero" fill-opacity="1" transform="scale(1 1.00002)"/><path d="M122.07 29.6709 122.07 21.8666 124.794 21.8666C126.782 21.8666 128.549 23.1919 128.549 25.7687 128.549 28.3456 126.782 29.6709 124.794 29.6709L122.07 29.6709ZM124.794 28.7137C126.267 28.7137 127.445 27.7566 127.445 25.7687 127.445 23.7809 126.267 22.8237 124.794 22.8237L123.175 22.8237 123.175 28.7137 124.794 28.7137ZM135.102 28.1248C134.807 29.0819 133.924 29.8181 132.746 29.8181 131.347 29.8181 130.095 28.7874 130.095 26.9467 130.095 25.2534 131.273 24.149 132.672 24.149 134.292 24.149 135.249 25.2534 135.249 26.9467L135.249 27.3149 131.273 27.3149C131.273 28.272 132.01 28.9346 132.893 28.9346 133.777 28.9346 134.218 28.4929 134.366 27.8302L135.102 28.1248ZM134.071 26.4314C134.071 25.6951 133.556 25.1061 132.599 25.1061 131.715 25.1061 131.2 25.7687 131.126 26.4314L134.071 26.4314ZM139.593 29.6709 138.562 29.6709 136.427 24.3699 137.605 24.3699 139.151 28.4929 140.697 24.3699 141.802 24.3699 139.593 29.6709ZM147.471 28.1248C147.176 29.0819 146.293 29.8181 145.115 29.8181 143.716 29.8181 142.464 28.7874 142.464 26.9467 142.464 25.2534 143.642 24.149 145.041 24.149 146.661 24.149 147.618 25.2534 147.618 26.9467L147.618 27.3149 143.642 27.3149C143.642 28.272 144.379 28.9346 145.262 28.9346 146.146 28.9346 146.587 28.4929 146.735 27.8302L147.471 28.1248ZM146.44 26.4314C146.44 25.6951 145.925 25.1061 144.968 25.1061 144.084 25.1061 143.569 25.7687 143.495 26.4314L146.44 26.4314ZM149.385 29.6709 149.385 21.6458 150.416 21.6458 150.416 29.6709 149.385 29.6709ZM157.705 27.0204C157.705 28.6401 156.6 29.8181 154.981 29.8181 153.361 29.8181 152.257 28.6401 152.257 27.0204 152.257 25.4006 153.361 24.2226 154.981 24.2226 156.6 24.2226 157.705 25.4006 157.705 27.0204ZM156.674 27.0204C156.674 25.7687 155.938 25.1061 155.054 25.1061 154.171 25.1061 153.434 25.7687 153.434 27.0204 153.434 28.272 154.171 28.9346 155.054 28.9346 155.938 28.9346 156.674 28.272 156.674 27.0204ZM159.619 31.7324 159.619 24.3699 160.65 24.3699 160.65 25.1798C160.944 24.6644 161.533 24.2226 162.417 24.2226 164.036 24.2226 164.846 25.4742 164.846 27.0204 164.846 28.5665 163.963 29.8181 162.343 29.8181 161.533 29.8181 160.871 29.45 160.65 28.9346L160.65 31.7324 159.619 31.7324ZM162.196 25.1798C161.239 25.1798 160.65 25.9896 160.65 27.0204 160.65 28.1248 161.312 28.861 162.196 28.861 163.153 28.861 163.742 28.0511 163.742 27.0204 163.742 25.916 163.153 25.1798 162.196 25.1798Z" fill="#404040" fill-rule="nonzero" fill-opacity="1" transform="scale(1 1.00002)"/><path d="M5.15375 6.84713 75.981 6.84713 75.981 43.6596 5.15375 43.6596Z" stroke="#404040" stroke-width="2.945" stroke-linecap="round" stroke-linejoin="round" stroke-miterlimit="10" stroke-opacity="1" fill="#B3E3FF" fill-rule="nonzero" fill-opacity="1" transform="scale(1 1.00002)"/><path d="M30.7016 29.6709 30.7016 23.56 27.9775 29.6709 27.0204 29.6709 24.3699 23.56 24.3699 29.6709 23.2655 29.6709 23.2655 21.8666 24.738 21.8666 27.4621 28.272 30.2599 21.8666 31.7324 21.8666 31.7324 29.6709 30.7016 29.6709ZM35.4136 26.6523 36.8861 26.4314C37.1806 26.3577 37.3279 26.2105 37.3279 26.0632 37.3279 25.5479 36.9598 25.1061 36.1499 25.1061 35.4136 25.1061 35.0455 25.5479 34.9719 26.2105L33.8675 25.916C34.0148 24.8852 34.8983 24.2226 36.0762 24.2226 37.696 24.2226 38.285 25.1061 38.285 26.1369L38.285 28.7874C38.285 29.2291 38.3586 29.5236 38.3586 29.6709L37.3279 29.6709C37.3279 29.5236 37.2542 29.3027 37.2542 28.9346 37.0334 29.3027 36.518 29.8181 35.5609 29.8181 34.4565 29.8181 33.7939 29.0819 33.7939 28.1984 33.7939 27.3149 34.4565 26.7259 35.4136 26.6523ZM37.2542 27.3885 37.2542 27.1676 35.6345 27.3885C35.1927 27.4621 34.8983 27.683 34.8983 28.1984 34.8983 28.5665 35.2664 28.9346 35.7817 28.9346 36.5916 28.9346 37.2542 28.5665 37.2542 27.3885ZM40.8619 27.9775C40.9355 28.5665 41.3773 28.9346 42.1135 28.9346 42.7025 28.9346 42.997 28.6401 42.997 28.1984 42.997 27.9039 42.7761 27.6094 42.3344 27.5358L41.4509 27.3149C40.641 27.1676 40.1256 26.5786 40.1256 25.8424 40.1256 24.9589 41.0091 24.149 42.0399 24.149 43.5124 24.149 43.9541 25.1061 44.0277 25.5479L43.1442 25.916C43.0706 25.6215 42.8498 25.0325 42.0399 25.0325 41.5245 25.0325 41.1564 25.4006 41.1564 25.7687 41.1564 26.0632 41.3773 26.3577 41.7454 26.4314L42.6289 26.6523C43.586 26.8731 44.1014 27.4621 44.1014 28.1984 44.1014 28.9346 43.4387 29.8181 42.1871 29.8181 40.7146 29.8181 40.1256 28.861 40.052 28.272L40.8619 27.9775ZM47.4145 24.3699 48.5925 24.3699 48.5925 25.327 47.4145 25.327 47.4145 28.1248C47.4145 28.6401 47.6354 28.861 48.1507 28.861 48.298 28.861 48.4453 28.861 48.5925 28.7874L48.5925 29.6709C48.5189 29.6709 48.2244 29.7445 47.8563 29.7445 46.9727 29.7445 46.3837 29.1555 46.3837 28.1984L46.3837 25.2534 45.353 25.2534 45.353 24.2962 45.6475 24.2962C46.2365 24.2962 46.4574 23.9281 46.4574 23.4864L46.4574 22.6029 47.4145 22.6029 47.4145 24.3699ZM54.9979 28.1248C54.7034 29.0819 53.8199 29.8181 52.6419 29.8181 51.243 29.8181 49.9914 28.7874 49.9914 26.9467 49.9914 25.2534 51.1694 24.149 52.5682 24.149 54.188 24.149 55.1451 25.2534 55.1451 26.9467L55.1451 27.3149 51.1694 27.3149C51.1694 28.272 51.9056 28.9346 52.7891 28.9346 53.6726 28.9346 54.1144 28.4929 54.2616 27.8302L54.9979 28.1248ZM53.9671 26.4314C53.9671 25.6951 53.4517 25.1061 52.4946 25.1061 51.6111 25.1061 51.0957 25.7687 51.0221 26.4314L53.9671 26.4314ZM59.8571 25.4006 59.4154 25.4006C58.5319 25.4006 57.9429 25.8424 57.9429 27.0204L57.9429 29.6709 56.9121 29.6709 56.9121 24.3699 57.9429 24.3699 57.9429 25.327C58.311 24.5171 58.9736 24.2962 59.5626 24.2962L59.9307 24.2962 59.9307 25.4006Z" fill="#404040" fill-rule="nonzero" fill-opacity="1" transform="scale(1 1.00002)"/><path d="M208.58 6.84713 279.407 6.84713 279.407 43.6596 208.58 43.6596Z" stroke="#404040" stroke-width="2.945" stroke-linecap="round" stroke-linejoin="round" stroke-miterlimit="10" stroke-opacity="1" fill="#4ED1A1" fill-rule="nonzero" fill-opacity="1" transform="scale(1 1.00002)"/><path d="M225.219 29.3027 225.219 21.4985 230.004 21.4985 230.004 22.5292 226.323 22.5292 226.323 25.0325 229.636 25.0325 229.636 26.0632 226.323 26.0632 226.323 29.3764 225.219 29.3764ZM235.968 27.7566C235.674 28.7137 234.79 29.45 233.612 29.45 232.213 29.45 230.962 28.4192 230.962 26.5786 230.962 24.8852 232.14 23.7809 233.465 23.7809 235.085 23.7809 236.042 24.8852 236.042 26.5786L236.042 26.9467 232.066 26.9467C232.066 27.9039 232.802 28.5665 233.686 28.5665 234.569 28.5665 235.011 28.1248 235.158 27.4621L235.968 27.7566ZM234.937 26.0632C234.937 25.327 234.422 24.738 233.465 24.738 232.581 24.738 232.066 25.4006 231.992 26.0632L234.937 26.0632ZM239.208 26.2841 240.68 26.0632C240.975 25.9896 241.122 25.8424 241.122 25.6951 241.122 25.1798 240.754 24.738 239.944 24.738 239.208 24.738 238.839 25.1798 238.766 25.8424L237.735 25.6215C237.882 24.5907 238.766 23.9281 239.944 23.9281 241.564 23.9281 242.153 24.8116 242.153 25.8424L242.153 28.4929C242.153 28.9346 242.226 29.2291 242.226 29.3764L241.195 29.3764C241.195 29.2291 241.122 29.0083 241.122 28.6401 240.901 29.0083 240.386 29.5236 239.428 29.5236 238.324 29.5236 237.661 28.7874 237.661 27.9039 237.588 26.9467 238.251 26.3577 239.208 26.2841ZM241.048 27.0204 241.048 26.7995 239.428 27.0204C238.987 27.094 238.692 27.3149 238.692 27.8302 238.692 28.1984 239.06 28.5665 239.576 28.5665 240.312 28.5665 241.048 28.1984 241.048 27.0204ZM245.613 24.0017 246.791 24.0017 246.791 24.9589 245.613 24.9589 245.613 27.7566C245.613 28.272 245.834 28.4929 246.349 28.4929 246.496 28.4929 246.644 28.4929 246.791 28.4192L246.791 29.3027C246.717 29.3027 246.423 29.3764 246.055 29.3764 245.171 29.3764 244.582 28.7874 244.582 27.8302L244.582 24.8852 243.551 24.8852 243.551 23.9281 243.846 23.9281C244.435 23.9281 244.656 23.56 244.656 23.1182L244.656 22.2348 245.613 22.2348 245.613 24.0017ZM250.619 29.45C249.368 29.45 248.632 28.4929 248.632 27.3149L248.632 24.0017 249.662 24.0017 249.662 27.1676C249.662 27.9039 250.031 28.5665 250.84 28.5665 251.65 28.5665 252.092 27.9775 252.092 27.2412L252.092 24.0754 253.123 24.0754 253.123 28.4192C253.123 28.861 253.123 29.2291 253.196 29.3764L252.239 29.3764C252.239 29.2291 252.166 28.9346 252.166 28.7137 251.945 29.2291 251.282 29.45 250.619 29.45ZM258.424 25.0325 257.982 25.0325C257.099 25.0325 256.509 25.4742 256.509 26.6523L256.509 29.3027 255.479 29.3027 255.479 24.0017 256.509 24.0017 256.509 24.9589C256.878 24.149 257.54 23.9281 258.129 23.9281L258.497 23.9281 258.497 25.0325ZM264.682 27.7566C264.387 28.7137 263.504 29.45 262.326 29.45 260.927 29.45 259.675 28.4192 259.675 26.5786 259.675 24.8852 260.853 23.7809 262.252 23.7809 263.872 23.7809 264.829 24.8852 264.829 26.5786L264.829 26.9467 260.853 26.9467C260.853 27.9039 261.59 28.5665 262.473 28.5665 263.357 28.5665 263.798 28.1248 263.946 27.4621L264.682 27.7566ZM263.651 26.0632C263.651 25.327 263.136 24.738 262.179 24.738 261.295 24.738 260.78 25.4006 260.706 26.0632L263.651 26.0632Z" fill="#404040" fill-rule="nonzero" fill-opacity="1" transform="scale(1 1.00002)"/><path d="M309.888 6.84713 380.715 6.84713 380.715 43.6596 309.888 43.6596Z" stroke="#404040" stroke-width="2.945" stroke-linecap="round" stroke-linejoin="round" stroke-miterlimit="10" stroke-opacity="1" fill="#4ED1A1" fill-rule="nonzero" fill-opacity="1" transform="scale(1 1.00002)"/><path d="M326.453 29.3027 326.453 21.4985 331.239 21.4985 331.239 22.5292 327.558 22.5292 327.558 25.0325 330.871 25.0325 330.871 26.0632 327.558 26.0632 327.558 29.3764 326.453 29.3764ZM337.202 27.7566C336.908 28.7137 336.024 29.45 334.846 29.45 333.448 29.45 332.196 28.4192 332.196 26.5786 332.196 24.8852 333.374 23.7809 334.773 23.7809 336.393 23.7809 337.35 24.8852 337.35 26.5786L337.35 26.9467 333.374 26.9467C333.374 27.9039 334.11 28.5665 334.994 28.5665 335.877 28.5665 336.319 28.1248 336.466 27.4621L337.202 27.7566ZM336.172 26.0632C336.172 25.327 335.656 24.738 334.699 24.738 333.816 24.738 333.3 25.4006 333.227 26.0632L336.172 26.0632ZM340.442 26.2841 341.914 26.0632C342.209 25.9896 342.356 25.8424 342.356 25.6951 342.356 25.1798 341.988 24.738 341.178 24.738 340.442 24.738 340.074 25.1798 340 25.8424L338.969 25.6215C339.117 24.5907 340 23.9281 341.178 23.9281 342.798 23.9281 343.387 24.8116 343.387 25.8424L343.387 28.4929C343.387 28.9346 343.461 29.2291 343.461 29.3764L342.356 29.3764C342.356 29.2291 342.283 29.0083 342.283 28.6401 342.062 29.0083 341.546 29.5236 340.589 29.5236 339.485 29.5236 338.822 28.7874 338.822 27.9039 338.822 26.9467 339.485 26.3577 340.442 26.2841ZM342.283 27.0204 342.283 26.7995 340.663 27.0204C340.221 27.094 339.853 27.3149 339.853 27.8302 339.853 28.1984 340.221 28.5665 340.736 28.5665 341.546 28.5665 342.283 28.1984 342.283 27.0204ZM346.847 24.0017 348.025 24.0017 348.025 24.9589 346.847 24.9589 346.847 27.7566C346.847 28.272 347.068 28.4929 347.584 28.4929 347.731 28.4929 347.878 28.4929 348.025 28.4192L348.025 29.3027C347.952 29.3027 347.657 29.3764 347.289 29.3764 346.406 29.3764 345.817 28.7874 345.817 27.8302L345.817 24.8852 344.786 24.8852 344.786 23.9281 345.08 23.9281C345.669 23.9281 345.89 23.56 345.89 23.1182L345.89 22.2348 346.847 22.2348 346.847 24.0017ZM351.854 29.45C350.602 29.45 349.866 28.4929 349.866 27.3149L349.866 24.0017 350.897 24.0017 350.897 27.1676C350.897 27.9039 351.191 28.5665 352.075 28.5665 352.885 28.5665 353.326 27.9775 353.326 27.2412L353.326 24.0754 354.357 24.0754 354.357 28.4192C354.357 28.861 354.357 29.2291 354.431 29.3764L353.474 29.3764C353.474 29.2291 353.4 28.9346 353.4 28.7137 353.179 29.2291 352.516 29.45 351.854 29.45ZM359.658 25.0325 359.216 25.0325C358.333 25.0325 357.744 25.4742 357.744 26.6523L357.744 29.3027 356.713 29.3027 356.713 24.0017 357.744 24.0017 357.744 24.9589C358.112 24.149 358.775 23.9281 359.364 23.9281L359.732 23.9281 359.732 25.0325ZM365.916 27.7566C365.622 28.7137 364.738 29.45 363.56 29.45 362.161 29.45 360.91 28.4192 360.91 26.5786 360.91 24.8852 362.088 23.7809 363.413 23.7809 365.033 23.7809 365.99 24.8852 365.99 26.5786L365.99 26.9467 362.014 26.9467C362.014 27.9039 362.75 28.5665 363.634 28.5665 364.517 28.5665 364.959 28.1248 365.106 27.4621L365.916 27.7566ZM364.885 26.0632C364.885 25.327 364.37 24.738 363.413 24.738 362.529 24.738 362.014 25.4006 361.94 26.0632L364.885 26.0632Z" fill="#404040" fill-rule="nonzero" fill-opacity="1" transform="scale(1 1.00002)"/><path d="M312.317 250.472C312.317 237.956 322.477 227.796 334.994 227.796" stroke="#404040" stroke-width="2.945" stroke-linecap="butt" stroke-linejoin="miter" stroke-miterlimit="10" stroke-opacity="1" fill="none" fill-rule="nonzero" transform="scale(1 1.00002)"/><path d="M186.934 250.472C186.934 237.956 176.774 227.796 164.257 227.796M120.966 318.428 278.45 318.428" stroke="#404040" stroke-width="2.945" stroke-linecap="butt" stroke-linejoin="miter" stroke-miterlimit="10" stroke-opacity="1" fill="none" fill-rule="nonzero" transform="scale(1 1.00002)"/><path d="M243.993 318.428C243.993 324.853 238.785 330.061 232.361 330.061 225.936 330.061 220.728 324.853 220.728 318.428 220.728 312.004 225.936 306.795 232.361 306.795 238.785 306.795 243.993 312.004 243.993 318.428Z" stroke="#404040" stroke-width="2.945" stroke-linecap="butt" stroke-linejoin="miter" stroke-miterlimit="10" stroke-opacity="1" fill="#4ED1A1" fill-rule="nonzero" fill-opacity="1" transform="scale(1 1.00002)"/><path d="M278.523 318.428C278.523 324.853 273.315 330.061 266.891 330.061 260.466 330.061 255.258 324.853 255.258 318.428 255.258 312.004 260.466 306.795 266.891 306.795 273.315 306.795 278.523 312.004 278.523 318.428Z" stroke="#404040" stroke-width="2.945" stroke-linecap="butt" stroke-linejoin="miter" stroke-miterlimit="10" stroke-opacity="1" fill="#4ED1A1" fill-rule="nonzero" fill-opacity="1" transform="scale(1 1.00002)"/><path d="M189.952 318.428C189.952 324.853 184.744 330.061 178.32 330.061 171.895 330.061 166.687 324.853 166.687 318.428 166.687 312.004 171.895 306.795 178.32 306.795 184.744 306.795 189.952 312.004 189.952 318.428Z" stroke="#404040" stroke-width="2.945" stroke-linecap="butt" stroke-linejoin="miter" stroke-miterlimit="10" stroke-opacity="1" fill="#4ED1A1" fill-rule="nonzero" fill-opacity="1" transform="scale(1 1.00002)"/><path d="M571.33 227.869 132.23 227.869" stroke="#404040" stroke-width="2.945" stroke-linecap="butt" stroke-linejoin="miter" stroke-miterlimit="10" stroke-opacity="1" fill="none" fill-rule="nonzero" transform="scale(1 1.00002)"/><path d="M368.714 227.869C368.714 234.294 363.506 239.502 357.081 239.502 350.657 239.502 345.448 234.294 345.448 227.869 345.448 221.445 350.657 216.237 357.081 216.237 363.506 216.237 368.714 221.445 368.714 227.869Z" stroke="#404040" stroke-width="2.945" stroke-linecap="butt" stroke-linejoin="miter" stroke-miterlimit="10" stroke-opacity="1" fill="#B18BE8" fill-rule="nonzero" fill-opacity="1" transform="scale(1 1.00002)"/><path d="M243.993 227.869C243.993 234.294 238.785 239.502 232.361 239.502 225.936 239.502 220.728 234.294 220.728 227.869 220.728 221.445 225.936 216.237 232.361 216.237 238.785 216.237 243.993 221.445 243.993 227.869Z" stroke="#404040" stroke-width="2.945" stroke-linecap="butt" stroke-linejoin="miter" stroke-miterlimit="10" stroke-opacity="1" fill="#B18BE8" fill-rule="nonzero" fill-opacity="1" transform="scale(1 1.00002)"/><path d="M582.963 227.869C582.963 234.294 577.755 239.502 571.33 239.502 564.905 239.502 559.697 234.294 559.697 227.869 559.697 221.445 564.905 216.237 571.33 216.237 577.755 216.237 582.963 221.445 582.963 227.869Z" stroke="#404040" stroke-width="2.945" stroke-linecap="butt" stroke-linejoin="miter" stroke-miterlimit="10" stroke-opacity="1" fill="#B18BE8" fill-rule="nonzero" fill-opacity="1" transform="scale(1 1.00002)"/><path d="M186.934 250.472C186.934 262.988 197.094 273.149 209.61 273.149L289.052 273.149" stroke="#404040" stroke-width="2.945" stroke-linecap="butt" stroke-linejoin="miter" stroke-miterlimit="10" stroke-opacity="1" fill="none" fill-rule="nonzero" transform="scale(1 1.00002)"/><path d="M243.993 273.149C243.993 279.573 238.785 284.781 232.361 284.781 225.936 284.781 220.728 279.573 220.728 273.149 220.728 266.724 225.936 261.516 232.361 261.516 238.785 261.516 243.993 266.724 243.993 273.149Z" stroke="#404040" stroke-width="2.945" stroke-linecap="butt" stroke-linejoin="miter" stroke-miterlimit="10" stroke-opacity="1" fill="#4ED1A1" fill-rule="nonzero" fill-opacity="1" transform="scale(1 1.00002)"/><path d="M278.523 273.149C278.523 279.573 273.315 284.781 266.891 284.781 260.466 284.781 255.258 279.573 255.258 273.149 255.258 266.724 260.466 261.516 266.891 261.516 273.315 261.516 278.523 266.724 278.523 273.149Z" stroke="#404040" stroke-width="2.945" stroke-linecap="butt" stroke-linejoin="miter" stroke-miterlimit="10" stroke-opacity="1" fill="#4ED1A1" fill-rule="nonzero" fill-opacity="1" transform="scale(1 1.00002)"/><path d="M289.052 273.149 289.714 273.149C302.231 273.149 312.317 262.988 312.317 250.472" stroke="#404040" stroke-width="2.945" stroke-linecap="butt" stroke-linejoin="miter" stroke-miterlimit="10" stroke-opacity="1" fill="none" fill-rule="nonzero" transform="scale(1 1.00002)"/><path d="M51.9792 227.869 15.5349 227.869" stroke="#CCCCCC" stroke-width="2.945" stroke-linecap="round" stroke-linejoin="round" stroke-miterlimit="4" stroke-dasharray="0 10.399" stroke-opacity="1" fill="none" fill-rule="nonzero" transform="scale(1 1.00002)"/><path d="" stroke="#CCCCCC" stroke-width="2.945" stroke-linecap="round" stroke-linejoin="round" stroke-miterlimit="4" stroke-opacity="1" fill="none" fill-rule="nonzero" transform="scale(1 1.00002)"/><path d="M560.36 182.59 499.766 182.59" stroke="#CCCCCC" stroke-width="2.945" stroke-linecap="round" stroke-linejoin="round" stroke-miterlimit="4" stroke-dasharray="0 11.0167" stroke-opacity="1" fill="none" fill-rule="nonzero" transform="scale(1 1.00002)"/><path d="M62.3604 205.193C62.3604 192.677 52.2001 182.516 39.6839 182.516" stroke="#404040" stroke-width="2.945" stroke-linecap="butt" stroke-linejoin="miter" stroke-miterlimit="10" stroke-opacity="1" fill="none" fill-rule="nonzero" transform="scale(1 1.00002)"/><path d="M120.966 318.428C120.966 324.853 115.758 330.061 109.333 330.061 102.909 330.061 97.7004 324.853 97.7004 318.428 97.7004 312.004 102.909 306.795 109.333 306.795 115.758 306.795 120.966 312.004 120.966 318.428Z" stroke="#404040" stroke-width="2.945" stroke-linecap="butt" stroke-linejoin="miter" stroke-miterlimit="10" stroke-opacity="1" fill="#4ED1A1" fill-rule="nonzero" fill-opacity="1" transform="scale(1 1.00002)"/><path d="M474.734 182.59 28.7137 182.59" stroke="#404040" stroke-width="2.945" stroke-linecap="butt" stroke-linejoin="miter" stroke-miterlimit="10" stroke-opacity="1" fill="none" fill-rule="nonzero" transform="scale(1 1.00002)"/><path d="M28.7137 182.59C28.7137 189.015 23.5056 194.223 17.081 194.223 10.6564 194.223 5.44825 189.015 5.44825 182.59 5.44825 176.165 10.6564 170.957 17.081 170.957 23.5056 170.957 28.7137 176.165 28.7137 182.59Z" stroke="#404040" stroke-width="2.945" stroke-linecap="butt" stroke-linejoin="miter" stroke-miterlimit="10" stroke-opacity="1" fill="#B3E3FF" fill-rule="nonzero" fill-opacity="1" transform="scale(1 1.00002)"/><path d="M243.993 182.59C243.993 189.015 238.785 194.223 232.361 194.223 225.936 194.223 220.728 189.015 220.728 182.59 220.728 176.165 225.936 170.957 232.361 170.957 238.785 170.957 243.993 176.165 243.993 182.59Z" stroke="#404040" stroke-width="2.945" stroke-linecap="butt" stroke-linejoin="miter" stroke-miterlimit="10" stroke-opacity="1" fill="#B3E3FF" fill-rule="nonzero" fill-opacity="1" transform="scale(1 1.00002)"/><path d="M486.367 182.59C486.367 189.015 481.159 194.223 474.734 194.223 468.309 194.223 463.101 189.015 463.101 182.59 463.101 176.165 468.309 170.957 474.734 170.957 481.159 170.957 486.367 176.165 486.367 182.59Z" stroke="#404040" stroke-width="2.945" stroke-linecap="butt" stroke-linejoin="miter" stroke-miterlimit="10" stroke-opacity="1" fill="#B3E3FF" fill-rule="nonzero" fill-opacity="1" transform="scale(1 1.00002)"/><path d="M35.929 104.916 67.2196 104.916 67.2196 132.525 35.929 132.525Z" stroke="#404040" stroke-width="2.945" stroke-linecap="round" stroke-linejoin="round" stroke-miterlimit="10" stroke-opacity="1" fill="#B3E3FF" fill-rule="nonzero" fill-opacity="1" transform="scale(1 1.00002)"/><path d="M45.942 121.997 45.0585 121.997 43.2179 117.358 44.175 117.358 45.5002 120.892 46.8255 117.358 47.7826 117.358 45.942 121.997ZM49.3288 116.696C49.6969 116.107 50.3595 115.665 51.243 115.665 52.1265 115.665 52.7155 116.033 53.1572 116.696 53.599 117.285 53.7463 118.094 53.7463 118.978 53.7463 119.861 53.599 120.598 53.1572 121.26 52.7891 121.849 52.1265 122.291 51.243 122.291 50.3595 122.291 49.7705 121.923 49.3288 121.26 48.887 120.671 48.7397 119.861 48.7397 118.978 48.7397 118.094 48.9606 117.285 49.3288 116.696ZM50.2859 120.892C50.5067 121.113 50.8013 121.26 51.243 121.26 51.6847 121.26 51.9792 121.113 52.2001 120.892 52.5682 120.524 52.7155 119.861 52.7155 118.904 52.7155 117.947 52.5682 117.285 52.2001 116.916 51.9792 116.696 51.6847 116.548 51.243 116.548 50.8013 116.548 50.5067 116.696 50.2859 116.916 49.9178 117.285 49.7705 117.947 49.7705 118.904 49.7705 119.861 49.9178 120.524 50.2859 120.892ZM55.6605 120.745C56.0286 120.745 56.3231 121.039 56.3231 121.408 56.3231 121.776 56.0286 122.07 55.6605 122.07 55.2924 122.07 54.9979 121.776 54.9979 121.408 54.9979 121.039 55.2188 120.745 55.6605 120.745ZM58.5319 121.997 58.5319 117.653 57.0594 117.653 57.0594 116.99C57.9429 116.99 58.5319 116.475 58.6791 115.812L59.489 115.812 59.489 121.997 58.5319 121.997Z" fill="#404040" fill-rule="nonzero" fill-opacity="1" transform="scale(1 1.00002)"/><path d="M51.6111 157.631 51.6111 144.673M57.5747 152.846 51.6111 158.809 45.5739 152.846" stroke="#404040" stroke-width="2.945" stroke-linecap="round" stroke-linejoin="round" stroke-miterlimit="10" stroke-opacity="1" fill="none" fill-rule="nonzero" transform="scale(1 1.00002)"/><path d="M216.678 104.916 247.969 104.916 247.969 132.525 216.678 132.525Z" stroke="#404040" stroke-width="2.945" stroke-linecap="round" stroke-linejoin="round" stroke-miterlimit="10" stroke-opacity="1" fill="#B3E3FF" fill-rule="nonzero" fill-opacity="1" transform="scale(1 1.00002)"/><path d="M225.513 121.997 224.556 121.997 222.716 117.358 223.746 117.358 225.072 120.892 226.397 117.358 227.354 117.358 225.513 121.997ZM228.9 116.696C229.268 116.107 229.931 115.665 230.814 115.665 231.698 115.665 232.287 116.033 232.729 116.696 233.17 117.285 233.318 118.094 233.318 118.978 233.318 119.861 233.17 120.598 232.729 121.26 232.361 121.849 231.698 122.291 230.814 122.291 229.931 122.291 229.342 121.923 228.9 121.26 228.458 120.671 228.311 119.861 228.311 118.978 228.311 118.094 228.532 117.285 228.9 116.696ZM229.857 120.892C230.078 121.113 230.373 121.26 230.814 121.26 231.256 121.26 231.551 121.113 231.771 120.892 232.14 120.524 232.287 119.861 232.287 118.904 232.287 117.947 232.14 117.285 231.771 116.916 231.551 116.696 231.256 116.548 230.814 116.548 230.373 116.548 230.078 116.696 229.857 116.916 229.489 117.285 229.342 117.947 229.342 118.904 229.342 119.861 229.489 120.524 229.857 120.892ZM235.232 120.745C235.6 120.745 235.894 121.039 235.894 121.408 235.894 121.776 235.6 122.07 235.232 122.07 234.864 122.07 234.569 121.776 234.569 121.408 234.569 121.039 234.864 120.745 235.232 120.745ZM237.441 117.947 237.441 117.726C237.441 116.696 238.251 115.738 239.576 115.738 240.901 115.738 241.637 116.622 241.637 117.653 241.637 118.463 241.195 119.125 240.459 119.567L239.208 120.377C238.839 120.598 238.545 120.892 238.471 121.26L241.637 121.26 241.637 122.144 237.293 122.144C237.293 121.113 237.735 120.377 238.766 119.641L239.797 118.978C240.386 118.61 240.68 118.168 240.68 117.653 240.68 117.064 240.312 116.548 239.502 116.548 238.692 116.548 238.324 117.137 238.324 117.8L238.324 118.094 237.441 117.947Z" fill="#404040" fill-rule="nonzero" fill-opacity="1" transform="scale(1 1.00002)"/><path d="M232.361 157.631 232.361 144.673M238.324 152.846 232.361 158.809 226.323 152.846" stroke="#404040" stroke-width="2.945" stroke-linecap="round" stroke-linejoin="round" stroke-miterlimit="10" stroke-opacity="1" fill="none" fill-rule="nonzero" transform="scale(1 1.00002)"/><path d="M459.052 104.916 490.342 104.916 490.342 132.525 459.052 132.525Z" stroke="#404040" stroke-width="2.945" stroke-linecap="round" stroke-linejoin="round" stroke-miterlimit="10" stroke-opacity="1" fill="#B3E3FF" fill-rule="nonzero" fill-opacity="1" transform="scale(1 1.00002)"/><path d="M468.697 121.997 467.813 121.997 465.973 117.358 467.003 117.358 468.329 120.892 469.654 117.358 470.611 117.358 468.697 121.997ZM472.82 121.997 472.82 117.653 471.347 117.653 471.347 116.99C472.231 116.99 472.82 116.475 472.967 115.812L473.777 115.812 473.777 121.997 472.82 121.997ZM476.206 120.745C476.575 120.745 476.869 121.039 476.869 121.408 476.869 121.776 476.575 122.07 476.206 122.07 475.838 122.07 475.544 121.776 475.544 121.408 475.544 121.039 475.838 120.745 476.206 120.745ZM478.857 116.696C479.225 116.107 479.888 115.665 480.771 115.665 481.655 115.665 482.244 116.033 482.685 116.696 483.127 117.285 483.275 118.094 483.275 118.978 483.275 119.861 483.127 120.598 482.685 121.26 482.317 121.849 481.655 122.291 480.771 122.291 479.888 122.291 479.299 121.923 478.857 121.26 478.415 120.671 478.268 119.861 478.268 118.978 478.268 118.094 478.415 117.285 478.857 116.696ZM479.74 120.892C479.961 121.113 480.256 121.26 480.698 121.26 481.139 121.26 481.434 121.113 481.655 120.892 482.023 120.524 482.17 119.861 482.17 118.904 482.17 117.947 482.023 117.285 481.655 116.916 481.434 116.696 481.139 116.548 480.698 116.548 480.256 116.548 479.961 116.696 479.74 116.916 479.372 117.285 479.225 117.947 479.225 118.904 479.225 119.861 479.372 120.524 479.74 120.892Z" fill="#404040" fill-rule="nonzero" fill-opacity="1" transform="scale(1 1.00002)"/><path d="M474.734 157.631 474.734 144.673M480.771 152.846 474.734 158.809 468.77 152.846" stroke="#404040" stroke-width="2.945" stroke-linecap="round" stroke-linejoin="round" stroke-miterlimit="10" stroke-opacity="1" fill="none" fill-rule="nonzero" transform="scale(1 1.00002)"/><path d="M181.633 273.149 15.3876 273.149" stroke="#CCCCCC" stroke-width="2.945" stroke-linecap="round" stroke-linejoin="round" stroke-miterlimit="4" stroke-dasharray="0 10.0751" stroke-opacity="1" fill="none" fill-rule="nonzero" transform="scale(1 1.00002)"/><path d="" stroke="#CCCCCC" stroke-width="2.945" stroke-linecap="round" stroke-linejoin="round" stroke-miterlimit="4" stroke-opacity="1" fill="none" fill-rule="nonzero" transform="scale(1 1.00002)"/><path d="M561.17 273.149 312.759 273.149" stroke="#CCCCCC" stroke-width="2.945" stroke-linecap="round" stroke-linejoin="round" stroke-miterlimit="4" stroke-dasharray="0 10.1394" stroke-opacity="1" fill="none" fill-rule="nonzero" transform="scale(1 1.00002)"/><path d="" stroke="#CCCCCC" stroke-width="2.945" stroke-linecap="round" stroke-linejoin="round" stroke-miterlimit="4" stroke-opacity="1" fill="none" fill-rule="nonzero" transform="scale(1 1.00002)"/><path d="M80.693 318.428 15.3876 318.428" stroke="#CCCCCC" stroke-width="2.945" stroke-linecap="round" stroke-linejoin="round" stroke-miterlimit="4" stroke-dasharray="0 10.0492" stroke-opacity="1" fill="none" fill-rule="nonzero" transform="scale(1 1.00002)"/><path d="" stroke="#CCCCCC" stroke-width="2.945" stroke-linecap="round" stroke-linejoin="round" stroke-miterlimit="4" stroke-opacity="1" fill="none" fill-rule="nonzero" transform="scale(1 1.00002)"/><path d="M561.096 318.428 289.788 318.428" stroke="#CCCCCC" stroke-width="2.945" stroke-linecap="round" stroke-linejoin="round" stroke-miterlimit="4" stroke-dasharray="0 10.239" stroke-opacity="1" fill="none" fill-rule="nonzero" transform="scale(1 1.00002)"/><path d="M62.3604 205.193C62.3604 217.709 72.5206 227.869 85.0369 227.869L155.496 227.869" stroke="#404040" stroke-width="2.945" stroke-linecap="butt" stroke-linejoin="miter" stroke-miterlimit="10" stroke-opacity="1" fill="none" fill-rule="nonzero" transform="scale(1 1.00002)"/><path d="M155.422 227.869C155.422 234.253 150.247 239.428 143.863 239.428 137.479 239.428 132.304 234.253 132.304 227.869 132.304 221.485 137.479 216.31 143.863 216.31 150.247 216.31 155.422 221.485 155.422 227.869Z" stroke="#404040" stroke-width="2.945" stroke-linecap="butt" stroke-linejoin="miter" stroke-miterlimit="10" stroke-opacity="1" fill="#B18BE8" fill-rule="nonzero" fill-opacity="1" transform="scale(1 1.00002)"/><path d="M120.966 227.869C120.966 234.294 115.758 239.502 109.333 239.502 102.909 239.502 97.7004 234.294 97.7004 227.869 97.7004 221.445 102.909 216.237 109.333 216.237 115.758 216.237 120.966 221.445 120.966 227.869Z" stroke="#404040" stroke-width="2.945" stroke-linecap="butt" stroke-linejoin="miter" stroke-miterlimit="10" stroke-opacity="1" fill="#B18BE8" fill-rule="nonzero" fill-opacity="1" transform="scale(1 1.00002)"/><path d="M109.333 239.428 109.333 306.795" stroke="#404040" stroke-width="2.945" stroke-linecap="butt" stroke-linejoin="miter" stroke-miterlimit="10" stroke-opacity="1" fill="none" fill-rule="nonzero" transform="scale(1 1.00002)"/></g></g></g></g></g></svg>