<svg width="589" height="242" xmlns="http://www.w3.org/2000/svg" xmlns:xlink="http://www.w3.org/1999/xlink" xml:space="preserve" overflow="hidden"><g><g><path d="M111.689 23.7809 110.511 23.7809 110.511 26.9467 109.407 26.9467 109.407 19.2161 112.352 19.2161C113.824 19.2161 114.781 20.2469 114.781 21.5721 114.781 22.6765 114.045 23.56 112.867 23.7809L114.708 27.094 113.456 27.094 111.689 23.7809ZM112.204 22.8237C113.088 22.8237 113.677 22.3084 113.677 21.4985 113.677 20.6886 113.088 20.1733 112.204 20.1733L110.585 20.1733 110.585 22.8237 112.204 22.8237ZM121.113 25.4742C120.819 26.4314 119.935 27.1676 118.757 27.1676 117.358 27.1676 116.107 26.1369 116.107 24.2962 116.107 22.6029 117.285 21.4985 118.683 21.4985 120.303 21.4985 121.26 22.6029 121.26 24.2962L121.26 24.6644 117.285 24.6644C117.285 25.6215 118.021 26.2841 118.904 26.2841 119.788 26.2841 120.23 25.8424 120.377 25.1798L121.113 25.4742ZM120.082 23.7809C120.082 23.0446 119.567 22.4556 118.61 22.4556 117.726 22.4556 117.211 23.1182 117.137 23.7809L120.082 23.7809ZM123.027 27.0204 123.027 18.9952 124.058 18.9952 124.058 27.0204 123.027 27.0204ZM131.052 25.4742C130.758 26.4314 129.874 27.1676 128.697 27.1676 127.298 27.1676 126.046 26.1369 126.046 24.2962 126.046 22.6029 127.224 21.4985 128.623 21.4985 130.243 21.4985 131.2 22.6029 131.2 24.2962L131.2 24.6644 127.224 24.6644C127.224 25.6215 127.96 26.2841 128.844 26.2841 129.727 26.2841 130.169 25.8424 130.316 25.1798L131.052 25.4742ZM129.948 23.7809C129.948 23.0446 129.433 22.4556 128.476 22.4556 127.592 22.4556 127.077 23.1182 127.003 23.7809L129.948 23.7809ZM134.218 24.0017 135.691 23.7809C135.985 23.7073 136.133 23.56 136.133 23.4127 136.133 22.8974 135.764 22.4556 134.955 22.4556 134.218 22.4556 133.85 22.8974 133.777 23.56L132.819 23.3391C132.967 22.3084 133.85 21.6458 135.028 21.6458 136.648 21.6458 137.237 22.5292 137.237 23.56L137.237 26.2105C137.237 26.6523 137.311 26.9467 137.311 27.094L136.28 27.094C136.28 26.9467 136.206 26.7259 136.206 26.3577 135.985 26.7259 135.47 27.2412 134.513 27.2412 133.408 27.2412 132.746 26.505 132.746 25.6215 132.599 24.6644 133.261 24.0754 134.218 24.0017ZM136.059 24.738 136.059 24.5171 134.439 24.738C133.997 24.8116 133.703 25.0325 133.703 25.5479 133.703 25.916 134.071 26.2841 134.587 26.2841 135.396 26.2841 136.059 25.916 136.059 24.738ZM139.667 25.327C139.74 25.916 140.182 26.2841 140.918 26.2841 141.507 26.2841 141.802 25.9896 141.802 25.5479 141.802 25.2534 141.581 24.9589 141.139 24.8852L140.256 24.6644C139.446 24.5171 138.93 23.9281 138.93 23.1919 138.93 22.3084 139.814 21.4985 140.845 21.4985 142.317 21.4985 142.759 22.4556 142.833 22.8974L141.949 23.2655C141.875 22.971 141.654 22.382 140.845 22.382 140.329 22.382 139.961 22.7501 139.961 23.1182 139.961 23.4127 140.182 23.7073 140.55 23.7809L141.434 24.0017C142.391 24.2226 142.906 24.8116 142.906 25.5479 142.906 26.2841 142.243 27.1676 140.992 27.1676 139.519 27.1676 138.93 26.2105 138.857 25.6215L139.667 25.327ZM149.385 25.4742C149.091 26.4314 148.207 27.1676 147.029 27.1676 145.63 27.1676 144.379 26.1369 144.379 24.2962 144.379 22.6029 145.557 21.4985 146.882 21.4985 148.502 21.4985 149.459 22.6029 149.459 24.2962L149.459 24.6644 145.483 24.6644C145.483 25.6215 146.219 26.2841 147.103 26.2841 147.986 26.2841 148.428 25.8424 148.575 25.1798L149.385 25.4742ZM148.354 23.7809C148.354 23.0446 147.839 22.4556 146.882 22.4556 145.998 22.4556 145.483 23.1182 145.409 23.7809L148.354 23.7809Z" fill="#404040" fill-rule="nonzero" fill-opacity="1" transform="scale(1 1.00211)"/><path d="M107.787 4.19662 178.614 4.19662 178.614 41.0091 107.787 41.0091Z" stroke="#404040" stroke-width="2.945" stroke-linecap="round" stroke-linejoin="round" stroke-miterlimit="10" stroke-opacity="1" fill="#B18BE8" fill-rule="nonzero" fill-opacity="1" transform="scale(1 1.00211)"/><path d="M122.806 27.0204 122.806 19.2161 125.531 19.2161C127.518 19.2161 129.286 20.5414 129.286 23.1182 129.286 25.6951 127.518 27.0204 125.531 27.0204L122.806 27.0204ZM125.457 26.0632C126.929 26.0632 128.107 25.1061 128.107 23.1182 128.107 21.1304 126.929 20.1733 125.457 20.1733L123.837 20.1733 123.837 26.0632 125.457 26.0632ZM135.764 25.4742C135.47 26.4314 134.587 27.1676 133.408 27.1676 132.01 27.1676 130.758 26.1369 130.758 24.2962 130.758 22.6029 131.936 21.4985 133.261 21.4985 134.881 21.4985 135.838 22.6029 135.838 24.2962L135.838 24.6644 131.789 24.6644C131.789 25.6215 132.525 26.2841 133.408 26.2841 134.292 26.2841 134.734 25.8424 134.881 25.1798L135.764 25.4742ZM134.734 23.7809C134.734 23.0446 134.218 22.4556 133.261 22.4556 132.378 22.4556 131.862 23.1182 131.789 23.7809L134.734 23.7809ZM140.256 27.0204 139.225 27.0204 137.09 21.7194 138.268 21.7194 139.814 25.8424 141.36 21.7194 142.464 21.7194 140.256 27.0204ZM148.133 25.4742C147.839 26.4314 146.956 27.1676 145.777 27.1676 144.379 27.1676 143.127 26.1369 143.127 24.2962 143.127 22.6029 144.305 21.4985 145.63 21.4985 147.25 21.4985 148.207 22.6029 148.207 24.2962L148.207 24.6644 144.231 24.6644C144.231 25.6215 144.968 26.2841 145.851 26.2841 146.735 26.2841 147.176 25.8424 147.324 25.1798L148.133 25.4742ZM147.103 23.7809C147.103 23.0446 146.587 22.4556 145.63 22.4556 144.747 22.4556 144.231 23.1182 144.158 23.7809L147.103 23.7809ZM150.048 27.0204 150.048 18.9952 151.078 18.9952 151.078 27.0204 150.048 27.0204ZM158.441 24.3699C158.441 25.9896 157.337 27.1676 155.717 27.1676 154.097 27.1676 152.993 25.9896 152.993 24.3699 152.993 22.7501 154.097 21.5721 155.717 21.5721 157.263 21.4985 158.441 22.7501 158.441 24.3699ZM157.337 24.3699C157.337 23.1182 156.6 22.4556 155.717 22.4556 154.833 22.4556 154.097 23.1182 154.097 24.3699 154.097 25.6215 154.833 26.2841 155.717 26.2841 156.6 26.2841 157.337 25.6215 157.337 24.3699ZM160.282 29.0819 160.282 21.7194 161.312 21.7194 161.312 22.5292C161.607 22.0139 162.196 21.5721 163.079 21.5721 164.699 21.5721 165.509 22.8237 165.509 24.3699 165.509 25.916 164.626 27.1676 163.006 27.1676 162.196 27.1676 161.533 26.7995 161.312 26.2841L161.312 29.0819 160.282 29.0819ZM162.858 22.5292C161.901 22.5292 161.312 23.3391 161.312 24.3699 161.312 25.4742 161.975 26.2105 162.858 26.2105 163.816 26.2105 164.405 25.4006 164.405 24.3699 164.478 23.2655 163.889 22.5292 162.858 22.5292Z" fill="#404040" fill-rule="nonzero" fill-opacity="1" transform="scale(1 1.00211)"/><path d="M5.15375 4.19662 75.981 4.19662 75.981 41.0091 5.15375 41.0091Z" stroke="#404040" stroke-width="2.945" stroke-linecap="round" stroke-linejoin="round" stroke-miterlimit="10" stroke-opacity="1" fill="#B3E3FF" fill-rule="nonzero" fill-opacity="1" transform="scale(1 1.00211)"/><path d="M30.7016 27.0204 30.7016 20.9095 27.9775 27.0204 27.0204 27.0204 24.3699 20.9095 24.3699 27.0204 23.2655 27.0204 23.2655 19.2161 24.738 19.2161 27.5358 25.6215 30.3335 19.2161 31.806 19.2161 31.806 27.0204 30.7016 27.0204ZM35.4136 24.0017 36.8125 23.7809C37.107 23.7073 37.2542 23.56 37.2542 23.4127 37.2542 22.8974 36.8861 22.4556 36.0762 22.4556 35.34 22.4556 34.9719 22.8974 34.8983 23.56L33.8675 23.2655C34.0148 22.2348 34.8983 21.5721 36.0762 21.5721 37.696 21.5721 38.285 22.4556 38.285 23.4864L38.285 26.1369C38.285 26.5786 38.3586 26.8731 38.3586 27.0204L37.3279 27.0204C37.3279 26.8731 37.2542 26.6523 37.2542 26.2841 37.0334 26.6523 36.518 27.1676 35.5609 27.1676 34.4565 27.1676 33.7939 26.4314 33.7939 25.5479 33.7939 24.6644 34.4565 24.0754 35.4136 24.0017ZM37.2542 24.738 37.2542 24.5171 35.6345 24.738C35.1927 24.8116 34.8983 25.0325 34.8983 25.5479 34.8983 25.916 35.1927 26.2841 35.7817 26.2841 36.5916 26.2841 37.2542 25.916 37.2542 24.738ZM40.8619 25.327C40.9355 25.916 41.3773 26.2841 42.1135 26.2841 42.7025 26.2841 42.997 25.9896 42.997 25.5479 42.997 25.2534 42.7761 24.9589 42.3344 24.8852L41.4509 24.6644C40.641 24.5171 40.1256 23.9281 40.1256 23.1919 40.1256 22.3084 41.0091 21.4985 42.0399 21.4985 43.5124 21.4985 43.9541 22.4556 44.0277 22.8974L43.1442 23.2655C43.0706 22.971 42.8498 22.382 42.0399 22.382 41.5245 22.382 41.1564 22.7501 41.1564 23.1182 41.1564 23.4127 41.3773 23.7073 41.7454 23.7809L42.6289 24.0017C43.586 24.2226 44.1014 24.8116 44.1014 25.5479 44.1014 26.2841 43.4387 27.1676 42.1871 27.1676 40.7146 27.1676 40.1256 26.2105 40.052 25.6215L40.8619 25.327ZM47.4145 21.7194 48.5925 21.7194 48.5925 22.6765 47.4145 22.6765 47.4145 25.4742C47.4145 25.9896 47.6354 26.2105 48.1507 26.2105 48.298 26.2105 48.4453 26.2105 48.5925 26.1369L48.5925 27.0204C48.5189 27.0204 48.2244 27.094 47.8563 27.094 46.9727 27.094 46.3837 26.505 46.3837 25.5479L46.3837 22.6029 45.353 22.6029 45.353 21.6458 45.6475 21.6458C46.2365 21.6458 46.4574 21.2776 46.4574 20.8359L46.4574 19.9524 47.4145 19.9524 47.4145 21.7194ZM54.9979 25.4742C54.7034 26.4314 53.8199 27.1676 52.6419 27.1676 51.243 27.1676 49.9914 26.1369 49.9914 24.2962 49.9914 22.6029 51.1694 21.4985 52.5682 21.4985 54.188 21.4985 55.1451 22.6029 55.1451 24.2962L55.1451 24.6644 51.1694 24.6644C51.1694 25.6215 51.9056 26.2841 52.7891 26.2841 53.6726 26.2841 54.1144 25.8424 54.2616 25.1798L54.9979 25.4742ZM53.9671 23.7809C53.9671 23.0446 53.4517 22.4556 52.4946 22.4556 51.6111 22.4556 51.0957 23.1182 51.0221 23.7809L53.9671 23.7809ZM59.8571 22.7501 59.4154 22.7501C58.5319 22.7501 57.9429 23.1919 57.9429 24.3699L57.9429 27.0204 56.9121 27.0204 56.9121 21.7194 57.9429 21.7194 57.9429 22.6765C58.311 21.8666 58.9736 21.6458 59.5626 21.6458L59.9307 21.6458 59.9307 22.7501Z" fill="#404040" fill-rule="nonzero" fill-opacity="1" transform="scale(1 1.00211)"/><path d="M571.625 225.808 132.525 225.808" stroke="#404040" stroke-width="2.945" stroke-linecap="butt" stroke-linejoin="miter" stroke-miterlimit="10" stroke-opacity="1" fill="none" fill-rule="nonzero" transform="scale(1 1.00211)"/><path d="M369.009 225.808C369.009 232.232 363.8 237.441 357.376 237.441 350.951 237.441 345.743 232.232 345.743 225.808 345.743 219.383 350.951 214.175 357.376 214.175 363.8 214.175 369.009 219.383 369.009 225.808Z" stroke="#404040" stroke-width="2.945" stroke-linecap="butt" stroke-linejoin="miter" stroke-miterlimit="10" stroke-opacity="1" fill="#B18BE8" fill-rule="nonzero" fill-opacity="1" transform="scale(1 1.00211)"/><path d="M244.288 225.808C244.288 232.232 239.08 237.441 232.655 237.441 226.23 237.441 221.022 232.232 221.022 225.808 221.022 219.383 226.23 214.175 232.655 214.175 239.08 214.175 244.288 219.383 244.288 225.808Z" stroke="#404040" stroke-width="2.945" stroke-linecap="butt" stroke-linejoin="miter" stroke-miterlimit="10" stroke-opacity="1" fill="#B18BE8" fill-rule="nonzero" fill-opacity="1" transform="scale(1 1.00211)"/><path d="M583.257 225.808C583.257 232.232 578.049 237.441 571.625 237.441 565.2 237.441 559.992 232.232 559.992 225.808 559.992 219.383 565.2 214.175 571.625 214.175 578.049 214.175 583.257 219.383 583.257 225.808Z" stroke="#404040" stroke-width="2.945" stroke-linecap="butt" stroke-linejoin="miter" stroke-miterlimit="10" stroke-opacity="1" fill="#B18BE8" fill-rule="nonzero" fill-opacity="1" transform="scale(1 1.00211)"/><path d="M52.2001 225.808 15.8294 225.808" stroke="#CCCCCC" stroke-width="2.945" stroke-linecap="round" stroke-linejoin="round" stroke-miterlimit="4" stroke-dasharray="0 10.399" stroke-opacity="1" fill="none" fill-rule="nonzero" transform="scale(1 1.00211)"/><path d="" stroke="#CCCCCC" stroke-width="2.945" stroke-linecap="round" stroke-linejoin="round" stroke-miterlimit="4" stroke-opacity="1" fill="none" fill-rule="nonzero" transform="scale(1 1.00211)"/><path d="M560.581 180.528 499.987 180.528" stroke="#CCCCCC" stroke-width="2.945" stroke-linecap="round" stroke-linejoin="round" stroke-miterlimit="4" stroke-dasharray="0 11.0167" stroke-opacity="1" fill="none" fill-rule="nonzero" transform="scale(1 1.00211)"/><path d="M62.6549 203.131C62.6549 190.615 52.4946 180.528 39.9784 180.528" stroke="#404040" stroke-width="2.945" stroke-linecap="butt" stroke-linejoin="miter" stroke-miterlimit="10" stroke-opacity="1" fill="none" fill-rule="nonzero" transform="scale(1 1.00211)"/><path d="M475.029 180.528 29.0083 180.528" stroke="#404040" stroke-width="2.945" stroke-linecap="butt" stroke-linejoin="miter" stroke-miterlimit="10" stroke-opacity="1" fill="none" fill-rule="nonzero" transform="scale(1 1.00211)"/><path d="M29.0083 180.528C29.0083 186.953 23.8001 192.161 17.3755 192.161 10.9509 192.161 5.74275 186.953 5.74275 180.528 5.74275 174.104 10.9509 168.896 17.3755 168.896 23.8001 168.896 29.0083 174.104 29.0083 180.528Z" stroke="#404040" stroke-width="2.945" stroke-linecap="butt" stroke-linejoin="miter" stroke-miterlimit="10" stroke-opacity="1" fill="#B3E3FF" fill-rule="nonzero" fill-opacity="1" transform="scale(1 1.00211)"/><path d="M244.288 180.528C244.288 186.953 239.08 192.161 232.655 192.161 226.23 192.161 221.022 186.953 221.022 180.528 221.022 174.104 226.23 168.896 232.655 168.896 239.08 168.896 244.288 174.104 244.288 180.528Z" stroke="#404040" stroke-width="2.945" stroke-linecap="butt" stroke-linejoin="miter" stroke-miterlimit="10" stroke-opacity="1" fill="#B3E3FF" fill-rule="nonzero" fill-opacity="1" transform="scale(1 1.00211)"/><path d="M486.661 180.528C486.661 186.953 481.453 192.161 475.029 192.161 468.604 192.161 463.396 186.953 463.396 180.528 463.396 174.104 468.604 168.896 475.029 168.896 481.453 168.896 486.661 174.104 486.661 180.528Z" stroke="#404040" stroke-width="2.945" stroke-linecap="butt" stroke-linejoin="miter" stroke-miterlimit="10" stroke-opacity="1" fill="#B3E3FF" fill-rule="nonzero" fill-opacity="1" transform="scale(1 1.00211)"/><path d="M36.2235 102.854 67.5141 102.854 67.5141 130.464 36.2235 130.464Z" stroke="#404040" stroke-width="2.945" stroke-linecap="round" stroke-linejoin="round" stroke-miterlimit="10" stroke-opacity="1" fill="#B3E3FF" fill-rule="nonzero" fill-opacity="1" transform="scale(1 1.00211)"/><path d="M46.1629 119.935 45.2794 119.935 43.4387 115.297 44.4695 115.297 45.7948 118.831 47.12 115.297 48.0771 115.297 46.1629 119.935ZM49.6232 114.634C49.9914 114.045 50.654 113.603 51.5375 113.603 52.421 113.603 53.01 113.971 53.4517 114.634 53.8935 115.223 54.0407 116.033 54.0407 116.916 54.0407 117.8 53.8935 118.536 53.4517 119.199 53.0836 119.788 52.421 120.23 51.5375 120.23 50.654 120.23 50.065 119.861 49.6232 119.199 49.1815 118.61 49.0342 117.8 49.0342 116.916 49.0342 116.033 49.2551 115.223 49.6232 114.634ZM50.5804 118.904C50.8013 119.125 51.0957 119.272 51.5375 119.272 51.9792 119.272 52.2738 119.125 52.4946 118.904 52.8628 118.536 53.01 117.874 53.01 116.916 53.01 115.959 52.8628 115.297 52.4946 114.929 52.2738 114.708 51.9792 114.561 51.5375 114.561 51.0957 114.561 50.8013 114.708 50.5804 114.929 50.2122 115.297 50.065 115.959 50.065 116.916 50.065 117.874 50.2122 118.463 50.5804 118.904ZM55.8814 118.683C56.2495 118.683 56.544 118.978 56.544 119.346 56.544 119.714 56.2495 120.009 55.8814 120.009 55.5132 120.009 55.2188 119.714 55.2188 119.346 55.2188 118.978 55.5132 118.683 55.8814 118.683ZM58.8264 119.935 58.8264 115.591 57.3539 115.591 57.3539 114.929C58.2374 114.929 58.8264 114.413 58.9736 113.751L59.7835 113.751 59.7835 119.935 58.8264 119.935Z" fill="#404040" fill-rule="nonzero" fill-opacity="1" transform="scale(1 1.00211)"/><path d="M51.9056 155.57 51.9056 142.612M57.8692 150.784 51.9056 156.821 45.8684 150.784" stroke="#404040" stroke-width="2.945" stroke-linecap="round" stroke-linejoin="round" stroke-miterlimit="10" stroke-opacity="1" fill="none" fill-rule="nonzero" transform="scale(1 1.00211)"/><path d="M216.973 102.854 248.264 102.854 248.264 130.464 216.973 130.464Z" stroke="#404040" stroke-width="2.945" stroke-linecap="round" stroke-linejoin="round" stroke-miterlimit="10" stroke-opacity="1" fill="#B3E3FF" fill-rule="nonzero" fill-opacity="1" transform="scale(1 1.00211)"/><path d="M225.734 119.935 224.851 119.935 223.01 115.297 224.041 115.297 225.366 118.831 226.691 115.297 227.648 115.297 225.734 119.935ZM229.195 114.634C229.563 114.045 230.225 113.603 231.109 113.603 231.992 113.603 232.581 113.971 233.023 114.634 233.465 115.223 233.612 116.033 233.612 116.916 233.612 117.8 233.465 118.536 233.023 119.199 232.655 119.788 231.992 120.23 231.109 120.23 230.225 120.23 229.636 119.861 229.195 119.199 228.753 118.61 228.606 117.8 228.606 116.916 228.606 116.033 228.826 115.223 229.195 114.634ZM230.152 118.904C230.373 119.125 230.667 119.272 231.109 119.272 231.551 119.272 231.845 119.125 232.066 118.904 232.434 118.536 232.581 117.874 232.581 116.916 232.581 115.959 232.434 115.297 232.066 114.929 231.845 114.708 231.551 114.561 231.109 114.561 230.667 114.561 230.373 114.708 230.152 114.929 229.784 115.297 229.636 115.959 229.636 116.916 229.636 117.874 229.784 118.463 230.152 118.904ZM235.453 118.683C235.821 118.683 236.115 118.978 236.115 119.346 236.115 119.714 235.821 120.009 235.453 120.009 235.085 120.009 234.79 119.714 234.79 119.346 234.79 118.978 235.085 118.683 235.453 118.683ZM237.735 115.886 237.735 115.665C237.735 114.634 238.545 113.677 239.87 113.677 241.195 113.677 241.932 114.561 241.932 115.591 241.932 116.401 241.49 117.064 240.754 117.506L239.502 118.315C239.134 118.536 238.839 118.831 238.766 119.199L241.932 119.199 241.932 120.082 237.588 120.082C237.588 119.052 238.03 118.315 239.06 117.579L240.091 116.916C240.68 116.548 240.975 116.107 240.975 115.591 240.975 115.002 240.606 114.487 239.797 114.487 238.987 114.487 238.619 115.076 238.619 115.738L238.619 116.033 237.735 115.886Z" fill="#404040" fill-rule="nonzero" fill-opacity="1" transform="scale(1 1.00211)"/><path d="M232.655 155.57 232.655 142.612M238.619 150.784 232.655 156.821 226.618 150.784" stroke="#404040" stroke-width="2.945" stroke-linecap="round" stroke-linejoin="round" stroke-miterlimit="10" stroke-opacity="1" fill="none" fill-rule="nonzero" transform="scale(1 1.00211)"/><path d="M459.346 102.854 490.637 102.854 490.637 130.464 459.346 130.464Z" stroke="#404040" stroke-width="2.945" stroke-linecap="round" stroke-linejoin="round" stroke-miterlimit="10" stroke-opacity="1" fill="#B3E3FF" fill-rule="nonzero" fill-opacity="1" transform="scale(1 1.00211)"/><path d="M468.918 119.935 468.034 119.935 466.194 115.297 467.224 115.297 468.549 118.831 469.875 115.297 470.832 115.297 468.918 119.935ZM473.114 119.935 473.114 115.591 471.642 115.591 471.642 114.929C472.525 114.929 473.114 114.413 473.261 113.751L474.071 113.751 474.071 119.935 473.114 119.935ZM476.427 118.683C476.795 118.683 477.09 118.978 477.09 119.346 477.09 119.714 476.795 120.009 476.427 120.009 476.059 120.009 475.765 119.714 475.765 119.346 475.765 118.978 476.059 118.683 476.427 118.683ZM479.151 114.634C479.52 114.045 480.182 113.603 481.066 113.603 481.949 113.603 482.538 113.971 482.98 114.634 483.422 115.223 483.569 116.033 483.569 116.916 483.569 117.8 483.422 118.536 482.98 119.199 482.612 119.788 481.949 120.23 481.066 120.23 480.182 120.23 479.593 119.861 479.151 119.199 478.71 118.61 478.562 117.8 478.562 116.916 478.562 116.033 478.71 115.223 479.151 114.634ZM480.035 118.904C480.256 119.125 480.55 119.272 480.992 119.272 481.434 119.272 481.728 119.125 481.949 118.904 482.317 118.536 482.465 117.874 482.465 116.916 482.465 115.959 482.317 115.297 481.949 114.929 481.728 114.708 481.434 114.561 480.992 114.561 480.55 114.561 480.256 114.708 480.035 114.929 479.667 115.297 479.52 115.959 479.52 116.916 479.52 117.874 479.667 118.463 480.035 118.904Z" fill="#404040" fill-rule="nonzero" fill-opacity="1" transform="scale(1 1.00211)"/><path d="M475.029 155.57 475.029 142.612M480.992 150.784 475.029 156.821 468.991 150.784" stroke="#404040" stroke-width="2.945" stroke-linecap="round" stroke-linejoin="round" stroke-miterlimit="10" stroke-opacity="1" fill="none" fill-rule="nonzero" transform="scale(1 1.00211)"/><path d="M62.6549 203.131C62.6549 215.648 72.8151 225.808 85.3314 225.808L155.79 225.808" stroke="#404040" stroke-width="2.945" stroke-linecap="butt" stroke-linejoin="miter" stroke-miterlimit="10" stroke-opacity="1" fill="none" fill-rule="nonzero" transform="scale(1 1.00211)"/><path d="M155.643 225.808C155.643 232.192 150.468 237.367 144.084 237.367 137.7 237.367 132.525 232.192 132.525 225.808 132.525 219.424 137.7 214.249 144.084 214.249 150.468 214.249 155.643 219.424 155.643 225.808Z" stroke="#404040" stroke-width="2.945" stroke-linecap="butt" stroke-linejoin="miter" stroke-miterlimit="10" stroke-opacity="1" fill="#B18BE8" fill-rule="nonzero" fill-opacity="1" transform="scale(1 1.00211)"/><path d="M121.26 225.808C121.26 232.232 116.052 237.441 109.628 237.441 103.203 237.441 97.9949 232.232 97.9949 225.808 97.9949 219.383 103.203 214.175 109.628 214.175 116.052 214.175 121.26 219.383 121.26 225.808Z" stroke="#404040" stroke-width="2.945" stroke-linecap="butt" stroke-linejoin="miter" stroke-miterlimit="10" stroke-opacity="1" fill="#B18BE8" fill-rule="nonzero" fill-opacity="1" transform="scale(1 1.00211)"/></g></g></svg>