<svg width="589" height="422" xmlns="http://www.w3.org/2000/svg" xmlns:xlink="http://www.w3.org/1999/xlink" xml:space="preserve" overflow="hidden"><g><g><path d="M312.015 338.115C312.015 325.616 322.161 315.471 334.659 315.471" stroke="#404040" stroke-width="2.94077" stroke-linecap="butt" stroke-linejoin="miter" stroke-miterlimit="10" stroke-opacity="1" fill="none" fill-rule="nonzero" transform="scale(1.00144 1)"/><path d="M186.812 338.115C186.812 325.616 176.667 315.471 164.168 315.471M120.939 405.899 278.197 405.899" stroke="#404040" stroke-width="2.94077" stroke-linecap="butt" stroke-linejoin="miter" stroke-miterlimit="10" stroke-opacity="1" fill="none" fill-rule="nonzero" transform="scale(1.00144 1)"/><path d="M243.79 405.899C243.79 412.315 238.589 417.515 232.174 417.515 225.758 417.515 220.558 412.315 220.558 405.899 220.558 399.484 225.758 394.283 232.174 394.283 238.589 394.283 243.79 399.484 243.79 405.899Z" stroke="#404040" stroke-width="2.94077" stroke-linecap="butt" stroke-linejoin="miter" stroke-miterlimit="10" stroke-opacity="1" fill="#4ED1A1" fill-rule="nonzero" fill-opacity="1" transform="scale(1.00144 1)"/><path d="M278.27 405.899C278.27 412.315 273.069 417.515 266.654 417.515 260.239 417.515 255.038 412.315 255.038 405.899 255.038 399.484 260.239 394.283 266.654 394.283 273.069 394.283 278.27 399.484 278.27 405.899Z" stroke="#404040" stroke-width="2.94077" stroke-linecap="butt" stroke-linejoin="miter" stroke-miterlimit="10" stroke-opacity="1" fill="#4ED1A1" fill-rule="nonzero" fill-opacity="1" transform="scale(1.00144 1)"/><path d="M189.9 405.899C189.9 412.315 184.699 417.515 178.284 417.515 171.869 417.515 166.668 412.315 166.668 405.899 166.668 399.484 171.869 394.283 178.284 394.283 184.699 394.283 189.9 399.484 189.9 405.899Z" stroke="#404040" stroke-width="2.94077" stroke-linecap="butt" stroke-linejoin="miter" stroke-miterlimit="10" stroke-opacity="1" fill="#4ED1A1" fill-rule="nonzero" fill-opacity="1" transform="scale(1.00144 1)"/><path d="M570.656 315.471 132.261 315.471" stroke="#404040" stroke-width="2.94077" stroke-linecap="butt" stroke-linejoin="miter" stroke-miterlimit="10" stroke-opacity="1" fill="none" fill-rule="nonzero" transform="scale(1.00144 1)"/><path d="M368.331 315.471C368.331 321.886 363.13 327.087 356.715 327.087 350.3 327.087 345.099 321.886 345.099 315.471 345.099 309.055 350.3 303.855 356.715 303.855 363.13 303.855 368.331 309.055 368.331 315.471Z" stroke="#404040" stroke-width="2.94077" stroke-linecap="butt" stroke-linejoin="miter" stroke-miterlimit="10" stroke-opacity="1" fill="#B18BE8" fill-rule="nonzero" fill-opacity="1" transform="scale(1.00144 1)"/><path d="M243.79 315.471C243.79 321.886 238.589 327.087 232.174 327.087 225.758 327.087 220.558 321.886 220.558 315.471 220.558 309.055 225.758 303.855 232.174 303.855 238.589 303.855 243.79 309.055 243.79 315.471Z" stroke="#404040" stroke-width="2.94077" stroke-linecap="butt" stroke-linejoin="miter" stroke-miterlimit="10" stroke-opacity="1" fill="#B18BE8" fill-rule="nonzero" fill-opacity="1" transform="scale(1.00144 1)"/><path d="M582.272 315.471C582.272 321.886 577.071 327.087 570.656 327.087 564.24 327.087 559.04 321.886 559.04 315.471 559.04 309.055 564.24 303.855 570.656 303.855 577.071 303.855 582.272 309.055 582.272 315.471Z" stroke="#404040" stroke-width="2.94077" stroke-linecap="butt" stroke-linejoin="miter" stroke-miterlimit="10" stroke-opacity="1" fill="#B18BE8" fill-rule="nonzero" fill-opacity="1" transform="scale(1.00144 1)"/><path d="M186.812 338.115C186.812 350.613 196.958 360.759 209.456 360.759L288.783 360.759M62.4178 202.178C62.4178 214.676 72.5634 224.822 85.0617 224.822L97.7805 224.822" stroke="#404040" stroke-width="2.94077" stroke-linecap="butt" stroke-linejoin="miter" stroke-miterlimit="10" stroke-opacity="1" fill="none" fill-rule="nonzero" transform="scale(1.00144 1)"/><path d="M243.79 360.685C243.79 367.1 238.589 372.301 232.174 372.301 225.758 372.301 220.558 367.1 220.558 360.685 220.558 354.27 225.758 349.069 232.174 349.069 238.589 349.069 243.79 354.27 243.79 360.685Z" stroke="#404040" stroke-width="2.94077" stroke-linecap="butt" stroke-linejoin="miter" stroke-miterlimit="10" stroke-opacity="1" fill="#4ED1A1" fill-rule="nonzero" fill-opacity="1" transform="scale(1.00144 1)"/><path d="M278.27 360.685C278.27 367.1 273.069 372.301 266.654 372.301 260.239 372.301 255.038 367.1 255.038 360.685 255.038 354.27 260.239 349.069 266.654 349.069 273.069 349.069 278.27 354.27 278.27 360.685Z" stroke="#404040" stroke-width="2.94077" stroke-linecap="butt" stroke-linejoin="miter" stroke-miterlimit="10" stroke-opacity="1" fill="#4ED1A1" fill-rule="nonzero" fill-opacity="1" transform="scale(1.00144 1)"/><path d="M288.783 360.685 289.445 360.685C301.943 360.685 312.089 350.539 312.089 338.041" stroke="#404040" stroke-width="2.94077" stroke-linecap="butt" stroke-linejoin="miter" stroke-miterlimit="10" stroke-opacity="1" fill="none" fill-rule="nonzero" transform="scale(1.00144 1)"/><path d="M42.053 225.042 15.8066 225.042" stroke="#CCCCCC" stroke-width="2.94077" stroke-linecap="round" stroke-linejoin="round" stroke-miterlimit="4" stroke-dasharray="0 10.517" stroke-opacity="1" fill="none" fill-rule="nonzero" transform="scale(1.00144 1)"/><path d="" stroke="#CCCCCC" stroke-width="2.94077" stroke-linecap="round" stroke-linejoin="round" stroke-miterlimit="4" stroke-opacity="1" fill="none" fill-rule="nonzero" transform="scale(1.00144 1)"/><path d="M560.29 225.042 180.048 225.042" stroke="#CCCCCC" stroke-width="2.94077" stroke-linecap="round" stroke-linejoin="round" stroke-miterlimit="4" stroke-dasharray="0 10.4169" stroke-opacity="1" fill="none" fill-rule="nonzero" transform="scale(1.00144 1)"/><path d="" stroke="#CCCCCC" stroke-width="2.94077" stroke-linecap="round" stroke-linejoin="round" stroke-miterlimit="4" stroke-opacity="1" fill="none" fill-rule="nonzero" transform="scale(1.00144 1)"/><path d="M390.754 270.256 15.6596 270.256" stroke="#CCCCCC" stroke-width="2.94077" stroke-linecap="round" stroke-linejoin="round" stroke-miterlimit="4" stroke-dasharray="0 10.2771" stroke-opacity="1" fill="none" fill-rule="nonzero" transform="scale(1.00144 1)"/><path d="" stroke="#CCCCCC" stroke-width="2.94077" stroke-linecap="round" stroke-linejoin="round" stroke-miterlimit="4" stroke-opacity="1" fill="none" fill-rule="nonzero" transform="scale(1.00144 1)"/><path d="M559.848 270.256 521.766 270.256" stroke="#CCCCCC" stroke-width="2.94077" stroke-linecap="round" stroke-linejoin="round" stroke-miterlimit="4" stroke-dasharray="0 10.8718" stroke-opacity="1" fill="none" fill-rule="nonzero" transform="scale(1.00144 1)"/><path d="" stroke="#CCCCCC" stroke-width="2.94077" stroke-linecap="round" stroke-linejoin="round" stroke-miterlimit="4" stroke-opacity="1" fill="none" fill-rule="nonzero" transform="scale(1.00144 1)"/><path d="M559.701 179.828 499.195 179.828" stroke="#CCCCCC" stroke-width="2.94077" stroke-linecap="round" stroke-linejoin="round" stroke-miterlimit="4" stroke-dasharray="0 11.0008" stroke-opacity="1" fill="none" fill-rule="nonzero" transform="scale(1.00144 1)"/><path d="M62.4178 202.472C62.4178 189.974 52.2721 179.828 39.7739 179.828M155.64 202.178C155.64 214.676 145.494 224.822 132.996 224.822L97.707 224.822M155.64 202.472C155.64 189.974 165.786 179.828 178.284 179.828M200.854 315.471C188.356 315.471 178.21 305.325 178.21 292.827L178.21 247.392M178.21 247.392C178.21 234.894 168.065 224.748 155.567 224.748" stroke="#404040" stroke-width="2.94077" stroke-linecap="butt" stroke-linejoin="miter" stroke-miterlimit="10" stroke-opacity="1" fill="none" fill-rule="nonzero" transform="scale(1.00144 1)"/><path d="M120.939 405.899C120.939 412.315 115.738 417.515 109.323 417.515 102.908 417.515 97.707 412.315 97.707 405.899 97.707 399.484 102.908 394.283 109.323 394.283 115.738 394.283 120.939 399.484 120.939 405.899Z" stroke="#404040" stroke-width="2.94077" stroke-linecap="butt" stroke-linejoin="miter" stroke-miterlimit="10" stroke-opacity="1" fill="#4ED1A1" fill-rule="nonzero" fill-opacity="1" transform="scale(1.00144 1)"/><path d="M474.199 179.828 28.8195 179.828" stroke="#404040" stroke-width="2.94077" stroke-linecap="butt" stroke-linejoin="miter" stroke-miterlimit="10" stroke-opacity="1" fill="none" fill-rule="nonzero" transform="scale(1.00144 1)"/><path d="M28.893 179.828C28.893 186.243 23.6924 191.444 17.277 191.444 10.8616 191.444 5.66098 186.243 5.66098 179.828 5.66098 173.413 10.8616 168.212 17.277 168.212 23.6924 168.212 28.893 173.413 28.893 179.828Z" stroke="#404040" stroke-width="2.94077" stroke-linecap="butt" stroke-linejoin="miter" stroke-miterlimit="10" stroke-opacity="1" fill="#B3E3FF" fill-rule="nonzero" fill-opacity="1" transform="scale(1.00144 1)"/><path d="M243.79 179.828C243.79 186.243 238.589 191.444 232.174 191.444 225.758 191.444 220.558 186.243 220.558 179.828 220.558 173.413 225.758 168.212 232.174 168.212 238.589 168.212 243.79 173.413 243.79 179.828Z" stroke="#404040" stroke-width="2.94077" stroke-linecap="butt" stroke-linejoin="miter" stroke-miterlimit="10" stroke-opacity="1" fill="#B3E3FF" fill-rule="nonzero" fill-opacity="1" transform="scale(1.00144 1)"/><path d="M485.815 179.828C485.815 186.243 480.614 191.444 474.199 191.444 467.783 191.444 462.583 186.243 462.583 179.828 462.583 173.413 467.783 168.212 474.199 168.212 480.614 168.212 485.815 173.413 485.815 179.828Z" stroke="#404040" stroke-width="2.94077" stroke-linecap="butt" stroke-linejoin="miter" stroke-miterlimit="10" stroke-opacity="1" fill="#B3E3FF" fill-rule="nonzero" fill-opacity="1" transform="scale(1.00144 1)"/><path d="M36.0244 102.265 67.27 102.265 67.27 129.835 36.0244 129.835Z" stroke="#404040" stroke-width="2.94077" stroke-linecap="round" stroke-linejoin="round" stroke-miterlimit="10" stroke-opacity="1" fill="#B3E3FF" fill-rule="nonzero" fill-opacity="1" transform="scale(1.00144 1)"/><path d="M46.023 119.395 45.1408 119.395 43.3028 114.763 44.3321 114.763 45.6554 118.292 46.9787 114.763 47.9345 114.763 46.023 119.395ZM49.4784 114.028C49.846 113.44 50.5077 112.999 51.3899 112.999 52.2721 112.999 52.8603 113.367 53.3014 114.028 53.7425 114.616 53.8895 115.425 53.8895 116.307 53.8895 117.19 53.7425 117.925 53.3014 118.586 52.9338 119.175 52.2721 119.616 51.3899 119.616 50.5077 119.616 49.9195 119.248 49.4784 118.586 49.0373 117.998 48.8902 117.19 48.8902 116.307 48.8902 115.425 49.0373 114.616 49.4784 114.028ZM50.3606 118.292C50.5812 118.513 50.8753 118.66 51.3164 118.66 51.7575 118.66 52.0516 118.513 52.2721 118.292 52.6397 117.925 52.7868 117.263 52.7868 116.307 52.7868 115.352 52.6397 114.69 52.2721 114.322 52.0516 114.102 51.7575 113.955 51.3164 113.955 50.8753 113.955 50.5812 114.102 50.3606 114.322 49.993 114.69 49.846 115.352 49.846 116.307 49.846 117.263 49.993 117.851 50.3606 118.292ZM55.7275 118.072C56.0951 118.072 56.3892 118.366 56.3892 118.733 56.3892 119.101 56.0951 119.395 55.7275 119.395 55.3599 119.395 55.0659 119.101 55.0659 118.733 55.0659 118.366 55.3599 118.072 55.7275 118.072ZM58.5948 119.395 58.5948 115.057 57.1244 115.057 57.1244 114.396C58.0066 114.396 58.5948 113.881 58.7418 113.22L59.5505 113.22 59.5505 119.395 58.5948 119.395Z" fill="#404040" fill-rule="nonzero" fill-opacity="1" transform="scale(1.00144 1)"/><path d="M51.684 154.905 51.684 141.966M57.7125 150.126 51.684 156.155 45.7289 150.126" stroke="#404040" stroke-width="2.94077" stroke-linecap="round" stroke-linejoin="round" stroke-miterlimit="10" stroke-opacity="1" fill="none" fill-rule="nonzero" transform="scale(1.00144 1)"/><path d="M216.587 102.265 247.833 102.265 247.833 129.835 216.587 129.835Z" stroke="#404040" stroke-width="2.94077" stroke-linecap="round" stroke-linejoin="round" stroke-miterlimit="10" stroke-opacity="1" fill="#B3E3FF" fill-rule="nonzero" fill-opacity="1" transform="scale(1.00144 1)"/><path d="M225.336 119.395 224.454 119.395 222.616 114.763 223.645 114.763 224.969 118.292 226.292 114.763 227.248 114.763 225.336 119.395ZM228.792 114.028C229.159 113.44 229.821 112.999 230.703 112.999 231.585 112.999 232.174 113.367 232.615 114.028 233.056 114.616 233.203 115.425 233.203 116.307 233.203 117.19 233.056 117.925 232.615 118.586 232.247 119.175 231.585 119.616 230.703 119.616 229.821 119.616 229.233 119.248 228.792 118.586 228.351 117.998 228.203 117.19 228.203 116.307 228.203 115.425 228.351 114.616 228.792 114.028ZM229.674 118.292C229.894 118.513 230.189 118.66 230.63 118.66 231.071 118.66 231.365 118.513 231.585 118.292 231.953 117.925 232.1 117.263 232.1 116.307 232.1 115.352 231.953 114.69 231.585 114.322 231.365 114.102 231.071 113.955 230.63 113.955 230.189 113.955 229.894 114.102 229.674 114.322 229.306 114.69 229.159 115.352 229.159 116.307 229.159 117.263 229.306 117.851 229.674 118.292ZM235.041 118.072C235.408 118.072 235.702 118.366 235.702 118.733 235.702 119.101 235.408 119.395 235.041 119.395 234.673 119.395 234.379 119.101 234.379 118.733 234.379 118.366 234.673 118.072 235.041 118.072ZM237.246 115.278 237.246 115.057C237.246 114.028 238.055 113.072 239.378 113.072 240.702 113.072 241.437 113.955 241.437 114.984 241.437 115.793 240.996 116.454 240.261 116.895L239.011 117.704C238.643 117.925 238.349 118.219 238.276 118.586L241.437 118.586 241.437 119.469 237.099 119.469C237.099 118.439 237.54 117.704 238.57 116.969L239.599 116.307C240.187 115.94 240.481 115.499 240.481 114.984 240.481 114.396 240.114 113.881 239.305 113.881 238.496 113.881 238.129 114.469 238.129 115.131L238.129 115.425 237.246 115.278Z" fill="#404040" fill-rule="nonzero" fill-opacity="1" transform="scale(1.00144 1)"/><path d="M232.174 154.905 232.174 141.966M238.202 150.126 232.174 156.155 226.218 150.126" stroke="#404040" stroke-width="2.94077" stroke-linecap="round" stroke-linejoin="round" stroke-miterlimit="10" stroke-opacity="1" fill="none" fill-rule="nonzero" transform="scale(1.00144 1)"/><path d="M458.613 102.265 489.858 102.265 489.858 129.835 458.613 129.835Z" stroke="#404040" stroke-width="2.94077" stroke-linecap="round" stroke-linejoin="round" stroke-miterlimit="10" stroke-opacity="1" fill="#B3E3FF" fill-rule="nonzero" fill-opacity="1" transform="scale(1.00144 1)"/><path d="M468.17 119.395 467.288 119.395 465.45 114.763 466.479 114.763 467.802 118.292 469.126 114.763 470.082 114.763 468.17 119.395ZM472.287 119.395 472.287 115.057 470.817 115.057 470.817 114.396C471.699 114.396 472.287 113.881 472.434 113.22L473.243 113.22 473.243 119.395 472.287 119.395ZM475.669 118.072C476.037 118.072 476.331 118.366 476.331 118.733 476.331 119.101 476.037 119.395 475.669 119.395 475.301 119.395 475.007 119.101 475.007 118.733 475.007 118.366 475.301 118.072 475.669 118.072ZM478.316 114.028C478.683 113.44 479.345 112.999 480.227 112.999 481.109 112.999 481.698 113.367 482.139 114.028 482.58 114.616 482.727 115.425 482.727 116.307 482.727 117.19 482.58 117.925 482.139 118.586 481.771 119.175 481.109 119.616 480.227 119.616 479.345 119.616 478.757 119.248 478.316 118.586 477.875 117.998 477.728 117.19 477.728 116.307 477.728 115.425 477.948 114.616 478.316 114.028ZM479.271 118.292C479.492 118.513 479.786 118.66 480.227 118.66 480.668 118.66 480.962 118.513 481.183 118.292 481.551 117.925 481.698 117.263 481.698 116.307 481.698 115.352 481.551 114.69 481.183 114.322 480.962 114.102 480.668 113.955 480.227 113.955 479.786 113.955 479.492 114.102 479.271 114.322 478.904 114.69 478.757 115.352 478.757 116.307 478.757 117.263 478.904 117.851 479.271 118.292Z" fill="#404040" fill-rule="nonzero" fill-opacity="1" transform="scale(1.00144 1)"/><path d="M474.199 154.905 474.199 141.966M480.227 150.126 474.199 156.155 468.244 150.126" stroke="#404040" stroke-width="2.94077" stroke-linecap="round" stroke-linejoin="round" stroke-miterlimit="10" stroke-opacity="1" fill="none" fill-rule="nonzero" transform="scale(1.00144 1)"/><path d="M47.4199 315.471 15.1449 315.471" stroke="#CCCCCC" stroke-width="2.94077" stroke-linecap="round" stroke-linejoin="round" stroke-miterlimit="4" stroke-dasharray="0 9.22151" stroke-opacity="1" fill="none" fill-rule="nonzero" transform="scale(1.00144 1)"/><path d="" stroke="#CCCCCC" stroke-width="2.94077" stroke-linecap="round" stroke-linejoin="round" stroke-miterlimit="4" stroke-opacity="1" fill="none" fill-rule="nonzero" transform="scale(1.00144 1)"/><path d="M181.519 360.685 15.5861 360.685" stroke="#CCCCCC" stroke-width="2.94077" stroke-linecap="round" stroke-linejoin="round" stroke-miterlimit="4" stroke-dasharray="0 10.0607" stroke-opacity="1" fill="none" fill-rule="nonzero" transform="scale(1.00144 1)"/><path d="" stroke="#CCCCCC" stroke-width="2.94077" stroke-linecap="round" stroke-linejoin="round" stroke-miterlimit="4" stroke-opacity="1" fill="none" fill-rule="nonzero" transform="scale(1.00144 1)"/><path d="M560.584 360.685 312.53 360.685" stroke="#CCCCCC" stroke-width="2.94077" stroke-linecap="round" stroke-linejoin="round" stroke-miterlimit="4" stroke-dasharray="0 10.1248" stroke-opacity="1" fill="none" fill-rule="nonzero" transform="scale(1.00144 1)"/><path d="" stroke="#CCCCCC" stroke-width="2.94077" stroke-linecap="round" stroke-linejoin="round" stroke-miterlimit="4" stroke-opacity="1" fill="none" fill-rule="nonzero" transform="scale(1.00144 1)"/><path d="M80.7976 405.899 15.5125 405.899" stroke="#CCCCCC" stroke-width="2.94077" stroke-linecap="round" stroke-linejoin="round" stroke-miterlimit="4" stroke-dasharray="0 10.0348" stroke-opacity="1" fill="none" fill-rule="nonzero" transform="scale(1.00144 1)"/><path d="" stroke="#CCCCCC" stroke-width="2.94077" stroke-linecap="round" stroke-linejoin="round" stroke-miterlimit="4" stroke-opacity="1" fill="none" fill-rule="nonzero" transform="scale(1.00144 1)"/><path d="M560.437 405.899 289.518 405.899" stroke="#CCCCCC" stroke-width="2.94077" stroke-linecap="round" stroke-linejoin="round" stroke-miterlimit="4" stroke-dasharray="0 10.2243" stroke-opacity="1" fill="none" fill-rule="nonzero" transform="scale(1.00144 1)"/><path d="M208.427 3.823 279.152 3.823 279.152 40.5826 208.427 40.5826Z" stroke="#404040" stroke-width="2.94077" stroke-linecap="round" stroke-linejoin="round" stroke-miterlimit="10" stroke-opacity="1" fill="#4CD3D6" fill-rule="nonzero" fill-opacity="1" transform="scale(1.00144 1)"/><path d="M227.027 23.3791 225.851 23.3791 225.851 26.5404 224.748 26.5404 224.748 18.8209 227.689 18.8209C229.159 18.8209 230.115 19.8502 230.115 21.1735 230.115 22.2763 229.38 23.1585 228.203 23.3791L230.041 26.6875 228.792 26.6875 227.027 23.3791ZM227.542 22.4233C228.424 22.4233 229.012 21.9087 229.012 21.1 229.012 20.2913 228.424 19.7767 227.542 19.7767L225.924 19.7767 225.924 22.4233 227.542 22.4233ZM236.438 25.07C236.144 26.0258 235.261 26.761 234.085 26.761 232.688 26.761 231.438 25.7317 231.438 23.8937 231.438 22.2028 232.615 21.1 234.011 21.1 235.629 21.1 236.585 22.2028 236.585 23.8937L236.585 24.2613 232.615 24.2613C232.615 25.2171 233.35 25.8787 234.232 25.8787 235.114 25.8787 235.555 25.4376 235.702 24.776L236.438 25.07ZM235.408 23.3791C235.408 22.6439 234.894 22.0557 233.938 22.0557 233.056 22.0557 232.541 22.7174 232.468 23.3791L235.408 23.3791ZM238.349 26.6139 238.349 18.6003 239.378 18.6003 239.378 26.6139 238.349 26.6139ZM246.363 25.07C246.069 26.0258 245.186 26.761 244.01 26.761 242.613 26.761 241.363 25.7317 241.363 23.8937 241.363 22.2028 242.54 21.1 243.937 21.1 245.554 21.1 246.51 22.2028 246.51 23.8937L246.51 24.2613 242.54 24.2613C242.54 25.2171 243.275 25.8787 244.157 25.8787 245.039 25.8787 245.48 25.4376 245.628 24.776L246.363 25.07ZM245.333 23.3791C245.333 22.6439 244.819 22.0557 243.863 22.0557 242.981 22.0557 242.466 22.7174 242.393 23.3791L245.333 23.3791ZM249.524 23.5997 250.994 23.3791C251.288 23.3056 251.436 23.1585 251.436 23.0115 251.436 22.4969 251.068 22.0557 250.259 22.0557 249.524 22.0557 249.156 22.4969 249.083 23.1585L248.054 22.938C248.201 21.9087 249.083 21.247 250.259 21.247 251.877 21.247 252.465 22.1293 252.465 23.1585L252.465 25.7317C252.465 26.1728 252.538 26.4669 252.538 26.6139L251.436 26.6139C251.436 26.4669 251.362 26.2463 251.362 25.8787 251.141 26.2463 250.627 26.761 249.671 26.761 248.568 26.761 247.907 26.0258 247.907 25.1436 247.907 24.2613 248.642 23.6732 249.524 23.5997ZM251.362 24.3348 251.362 24.1143 249.745 24.3348C249.303 24.4084 249.009 24.6289 249.009 25.1436 249.009 25.5112 249.377 25.8787 249.892 25.8787 250.7 25.8787 251.362 25.5112 251.362 24.3348ZM255.038 24.923C255.111 25.5112 255.553 25.8787 256.288 25.8787 256.876 25.8787 257.17 25.5112 257.17 25.1436 257.17 24.8495 256.949 24.5554 256.508 24.4819L255.626 24.2613C254.817 24.1143 254.303 23.5261 254.303 22.7909 254.303 21.9087 255.185 21.1 256.214 21.1 257.685 21.1 258.126 22.0557 258.199 22.4969L257.317 22.8645C257.244 22.5704 257.023 21.9822 256.214 21.9822 255.7 21.9822 255.332 22.3498 255.332 22.7174 255.332 23.0115 255.553 23.3056 255.92 23.3791L256.802 23.5997C257.758 23.8202 258.273 24.4084 258.273 25.1436 258.273 25.8787 257.611 26.761 256.361 26.761 254.891 26.761 254.303 25.8052 254.229 25.2171L255.038 24.923ZM264.669 25.07C264.375 26.0258 263.493 26.761 262.316 26.761 260.919 26.761 259.67 25.7317 259.67 23.8937 259.67 22.2028 260.846 21.1 262.243 21.1 263.86 21.1 264.816 22.2028 264.816 23.8937L264.816 24.2613 260.846 24.2613C260.846 25.2171 261.581 25.8787 262.463 25.8787 263.346 25.8787 263.787 25.4376 263.934 24.776L264.669 25.07ZM263.64 23.3791C263.64 22.6439 263.125 22.0557 262.169 22.0557 261.287 22.0557 260.772 22.7174 260.699 23.3791L263.64 23.3791Z" fill="#404040" fill-rule="nonzero" fill-opacity="1" transform="scale(1.00144 1)"/><path d="M309.736 3.823 380.462 3.823 380.462 40.5826 309.736 40.5826Z" stroke="#404040" stroke-width="2.94077" stroke-linecap="round" stroke-linejoin="round" stroke-miterlimit="10" stroke-opacity="1" fill="#B18BE8" fill-rule="nonzero" fill-opacity="1" transform="scale(1.00144 1)"/><path d="M324.734 26.6139 324.734 18.8209 327.454 18.8209C329.439 18.8209 331.204 20.1443 331.204 22.7174 331.204 25.2906 329.439 26.6139 327.454 26.6139L324.734 26.6139ZM327.381 25.6582C328.851 25.6582 330.028 24.7024 330.028 22.7174 330.028 20.7324 328.851 19.7767 327.381 19.7767L325.763 19.7767 325.763 25.6582 327.381 25.6582ZM337.674 25.07C337.379 26.0258 336.497 26.761 335.321 26.761 333.924 26.761 332.674 25.7317 332.674 23.8937 332.674 22.2028 333.851 21.1 335.174 21.1 336.791 21.1 337.747 22.2028 337.747 23.8937L337.747 24.2613 333.777 24.2613C333.777 25.2171 334.512 25.8787 335.394 25.8787 336.277 25.8787 336.718 25.4376 336.865 24.776L337.674 25.07ZM336.644 23.3791C336.644 22.6439 336.13 22.0557 335.174 22.0557 334.292 22.0557 333.777 22.7174 333.703 23.3791L336.644 23.3791ZM342.158 26.6139 341.129 26.6139 338.923 21.3206 340.1 21.3206 341.644 25.4376 343.187 21.3206 344.29 21.3206 342.158 26.6139ZM350.025 25.07C349.731 26.0258 348.848 26.761 347.672 26.761 346.275 26.761 345.025 25.7317 345.025 23.8937 345.025 22.2028 346.202 21.1 347.599 21.1 349.216 21.1 350.172 22.2028 350.172 23.8937L350.172 24.2613 346.202 24.2613C346.202 25.2171 346.937 25.8787 347.819 25.8787 348.701 25.8787 349.143 25.4376 349.29 24.776L350.025 25.07ZM348.995 23.3791C348.995 22.6439 348.481 22.0557 347.525 22.0557 346.643 22.0557 346.128 22.7174 346.055 23.3791L348.995 23.3791ZM351.936 26.6139 351.936 18.6003 352.966 18.6003 352.966 26.6139 351.936 26.6139ZM360.317 23.9672C360.317 25.5847 359.215 26.761 357.597 26.761 355.98 26.761 354.877 25.5847 354.877 23.9672 354.877 22.3498 355.98 21.1735 357.597 21.1735 359.141 21.1 360.317 22.3498 360.317 23.9672ZM359.215 23.9672C359.215 22.7174 358.479 22.0557 357.597 22.0557 356.715 22.0557 355.98 22.7174 355.98 23.9672 355.98 25.2171 356.715 25.8787 357.597 25.8787 358.479 25.8787 359.215 25.1436 359.215 23.9672ZM362.155 28.6725 362.155 21.3206 363.185 21.3206 363.185 22.1293C363.479 21.6146 364.067 21.1735 364.949 21.1735 366.567 21.1735 367.375 22.4233 367.375 23.9672 367.375 25.5112 366.493 26.761 364.876 26.761 364.067 26.761 363.405 26.3934 363.185 25.8787L363.185 28.6725 362.155 28.6725ZM364.729 22.1293C363.773 22.1293 363.185 22.938 363.185 23.9672 363.185 25.07 363.846 25.8787 364.729 25.8787 365.684 25.8787 366.272 25.07 366.272 23.9672 366.346 22.8645 365.758 22.1293 364.729 22.1293Z" fill="#404040" fill-rule="nonzero" fill-opacity="1" transform="scale(1.00144 1)"/><path d="M107.191 3.823 177.916 3.823 177.916 40.5826 107.191 40.5826Z" stroke="#404040" stroke-width="2.94077" stroke-linecap="round" stroke-linejoin="round" stroke-miterlimit="10" stroke-opacity="1" fill="#FC8363" fill-rule="nonzero" fill-opacity="1" transform="scale(1.00144 1)"/><path d="M132.996 26.6139 132.996 23.1585 129.026 23.1585 129.026 26.6139 127.923 26.6139 127.923 18.8209 129.026 18.8209 129.026 22.1293 132.996 22.1293 132.996 18.8209 134.099 18.8209 134.099 26.6139 132.996 26.6139ZM141.451 23.9672C141.451 25.5847 140.348 26.761 138.731 26.761 137.113 26.761 136.01 25.5847 136.01 23.9672 136.01 22.3498 137.113 21.1735 138.731 21.1735 140.348 21.1 141.451 22.3498 141.451 23.9672ZM140.422 23.9672C140.422 22.7174 139.686 22.0557 138.804 22.0557 137.922 22.0557 137.187 22.7174 137.187 23.9672 137.187 25.2171 137.922 25.8787 138.804 25.8787 139.686 25.8787 140.422 25.1436 140.422 23.9672ZM144.686 21.3206 145.862 21.3206 145.862 22.2763 144.686 22.2763 144.686 24.9965C144.686 25.5112 144.906 25.7317 145.421 25.7317 145.568 25.7317 145.715 25.7317 145.862 25.6582L145.862 26.5404C145.788 26.5404 145.494 26.6139 145.127 26.6139 144.245 26.6139 143.656 26.0258 143.656 25.07L143.656 22.1293 142.627 22.1293 142.627 21.3206 142.921 21.3206C143.509 21.3206 143.73 20.953 143.73 20.5118L143.73 19.6296 144.686 19.6296 144.686 21.3206ZM150.42 18.6739 150.42 19.6296C150.347 19.6296 150.2 19.5561 149.979 19.5561 149.611 19.5561 149.17 19.7031 149.17 20.4383L149.17 21.3206 152.699 21.3206 152.699 26.6139 151.67 26.6139 151.67 22.2763 149.17 22.2763 149.17 26.6139 148.068 26.6139 148.068 22.2763 147.112 22.2763 147.112 21.3206 148.068 21.3206 148.068 20.4383C148.068 19.262 148.876 18.6003 149.832 18.6003 150.126 18.6003 150.347 18.6739 150.42 18.6739ZM152.111 18.5268C152.552 18.5268 152.846 18.8209 152.846 19.262 152.846 19.7031 152.479 19.9972 152.111 19.9972 151.67 19.9972 151.376 19.6296 151.376 19.262 151.376 18.8209 151.744 18.5268 152.111 18.5268ZM156.155 23.8937 154.243 21.3206 155.493 21.3206 156.816 23.1585 158.066 21.3206 159.316 21.3206 157.405 23.8937C157.699 24.3348 159.022 26.1728 159.39 26.6139L158.14 26.6139 156.743 24.6289 155.42 26.6139 154.17 26.6139 156.155 23.8937Z" fill="#404040" fill-rule="nonzero" fill-opacity="1" transform="scale(1.00144 1)"/><path d="M5.88153 3.823 76.607 3.823 76.607 40.5826 5.88153 40.5826Z" stroke="#404040" stroke-width="2.94077" stroke-linecap="round" stroke-linejoin="round" stroke-miterlimit="10" stroke-opacity="1" fill="#B3E3FF" fill-rule="nonzero" fill-opacity="1" transform="scale(1.00144 1)"/><path d="M31.3927 26.6139 31.3927 20.5118 28.746 26.6139 27.7902 26.6139 25.1436 20.5118 25.1436 26.6139 24.0408 26.6139 24.0408 18.8209 25.5112 18.8209 28.3049 25.2171 31.0986 18.8209 32.569 18.8209 32.569 26.6139 31.3927 26.6139ZM36.0979 23.5997 37.4948 23.3791C37.7889 23.3056 37.9359 23.1585 37.9359 23.0115 37.9359 22.4969 37.5683 22.0557 36.7596 22.0557 36.0244 22.0557 35.6568 22.4969 35.5833 23.1585L34.6275 22.938C34.701 21.9087 35.6568 21.247 36.8331 21.247 38.4505 21.247 39.0387 22.1293 39.0387 23.1585L39.0387 25.7317C39.0387 26.1728 39.1122 26.4669 39.1122 26.6139L38.0829 26.6139C38.0829 26.4669 38.0094 26.2463 38.0094 25.8787 37.7889 26.2463 37.2742 26.761 36.3185 26.761 35.2157 26.761 34.554 26.0258 34.554 25.1436 34.4805 24.2613 35.2157 23.6732 36.0979 23.5997ZM37.9359 24.3348 37.9359 24.1143 36.3185 24.3348C35.8773 24.4084 35.5833 24.6289 35.5833 25.1436 35.5833 25.5112 35.8773 25.8787 36.4655 25.8787 37.2742 25.8787 37.9359 25.5112 37.9359 24.3348ZM41.6118 24.923C41.6854 25.5112 42.1265 25.8787 42.8617 25.8787 43.4498 25.8787 43.7439 25.5112 43.7439 25.1436 43.7439 24.8495 43.5233 24.5554 43.0822 24.4819L42.2 24.2613C41.3913 24.1143 40.8767 23.5261 40.8767 22.7909 40.8767 21.9087 41.7589 21.1 42.7882 21.1 44.2585 21.1 44.6996 22.0557 44.7732 22.4969L43.8909 22.8645C43.8174 22.5704 43.5969 21.9822 42.7882 21.9822 42.2735 21.9822 41.9059 22.3498 41.9059 22.7174 41.9059 23.0115 42.1265 23.3056 42.4941 23.3791L43.3763 23.5997C44.3321 23.8202 44.8467 24.4084 44.8467 25.1436 44.8467 25.8787 44.185 26.761 42.9352 26.761 41.4648 26.761 40.8767 25.8052 40.8031 25.2171L41.6118 24.923ZM48.0815 21.3206 49.2578 21.3206 49.2578 22.2763 48.0815 22.2763 48.0815 24.9965C48.0815 25.5112 48.3021 25.7317 48.8167 25.7317 48.9638 25.7317 49.1108 25.7317 49.2578 25.6582L49.2578 26.5404C49.1843 26.5404 48.8902 26.6139 48.5226 26.6139 47.6404 26.6139 47.0523 26.0258 47.0523 25.07L47.0523 22.1293 46.023 22.1293 46.023 21.3206 46.3171 21.3206C46.9052 21.3206 47.1258 20.953 47.1258 20.5118L47.1258 19.6296 48.0815 19.6296 48.0815 21.3206ZM55.7275 25.07C55.4335 26.0258 54.5512 26.761 53.3749 26.761 51.978 26.761 50.7282 25.7317 50.7282 23.8937 50.7282 22.2028 51.9045 21.1 53.3014 21.1 54.9188 21.1 55.8746 22.2028 55.8746 23.8937L55.8746 24.1878 51.9045 24.1878C51.9045 25.1436 52.6397 25.8052 53.522 25.8052 54.4042 25.8052 54.8453 25.3641 54.9923 24.7024L55.7275 25.07ZM54.6983 23.3791C54.6983 22.6439 54.1836 22.0557 53.2279 22.0557 52.3456 22.0557 51.831 22.7174 51.7575 23.3791L54.6983 23.3791ZM60.5798 22.3498 60.1387 22.3498C59.2564 22.3498 58.6683 22.7909 58.6683 23.9672L58.6683 26.6139 57.639 26.6139 57.639 21.3206 58.6683 21.3206 58.6683 22.2763C59.0359 21.4676 59.6976 21.247 60.2857 21.247L60.6533 21.247 60.6533 22.3498Z" fill="#404040" fill-rule="nonzero" fill-opacity="1" transform="scale(1.00144 1)"/><path d="M411.046 3.823 481.771 3.823 481.771 40.5826 411.046 40.5826Z" stroke="#404040" stroke-width="2.94077" stroke-linecap="round" stroke-linejoin="round" stroke-miterlimit="10" stroke-opacity="1" fill="#4ED1A1" fill-rule="nonzero" fill-opacity="1" transform="scale(1.00144 1)"/><path d="M427.587 26.2463 427.587 18.4533 432.366 18.4533 432.366 19.4826 428.69 19.4826 428.69 21.9822 431.999 21.9822 431.999 23.0115 428.69 23.0115 428.69 26.3199 427.587 26.3199ZM438.395 24.7024C438.101 25.6582 437.218 26.3934 436.042 26.3934 434.645 26.3934 433.395 25.3641 433.395 23.5261 433.395 21.8352 434.572 20.7324 435.969 20.7324 437.586 20.7324 438.542 21.8352 438.542 23.5261L438.542 23.8937 434.572 23.8937C434.572 24.8495 435.307 25.5112 436.189 25.5112 437.071 25.5112 437.513 25.07 437.66 24.4084L438.395 24.7024ZM437.292 23.0115C437.292 22.2763 436.777 21.6882 435.822 21.6882 434.939 21.6882 434.425 22.3498 434.351 23.0115L437.292 23.0115ZM441.556 23.2321 443.026 23.0115C443.321 22.938 443.468 22.7909 443.468 22.6439 443.468 22.1293 443.1 21.6882 442.291 21.6882 441.556 21.6882 441.188 22.1293 441.115 22.7909L440.159 22.5704C440.306 21.5411 441.188 20.8794 442.365 20.8794 443.982 20.8794 444.57 21.7617 444.57 22.7909L444.57 25.4376C444.57 25.8787 444.644 26.1728 444.644 26.3199L443.615 26.3199C443.615 26.1728 443.541 25.9523 443.541 25.5847 443.321 25.9523 442.806 26.4669 441.85 26.4669 440.747 26.4669 440.086 25.7317 440.086 24.8495 439.939 23.8937 440.6 23.3056 441.556 23.2321ZM443.394 23.9672 443.394 23.7467 441.777 23.9672C441.336 24.0408 441.041 24.2613 441.041 24.776 441.041 25.1436 441.409 25.5112 441.924 25.5112 442.732 25.5112 443.394 25.1436 443.394 23.9672ZM447.952 20.953 449.129 20.953 449.129 21.9087 447.952 21.9087 447.952 24.7024C447.952 25.2171 448.173 25.4376 448.687 25.4376 448.835 25.4376 448.982 25.4376 449.129 25.3641L449.129 26.2463C449.055 26.2463 448.761 26.3199 448.393 26.3199 447.511 26.3199 446.923 25.7317 446.923 24.776L446.923 21.8352 445.894 21.8352 445.894 20.8794 446.188 20.8794C446.776 20.8794 446.997 20.5118 446.997 20.0707L446.997 19.1885 447.952 19.1885 447.952 20.953ZM452.952 26.3934C451.702 26.3934 450.967 25.4376 450.967 24.2613L450.967 20.953 451.996 20.953 451.996 24.1143C451.996 24.8495 452.363 25.5112 453.172 25.5112 453.981 25.5112 454.422 24.923 454.422 24.1878L454.422 21.0265 455.451 21.0265 455.451 25.3641C455.451 25.8052 455.451 26.1728 455.525 26.3199L454.569 26.3199C454.569 26.1728 454.495 25.8787 454.495 25.6582 454.275 26.1728 453.613 26.3934 452.952 26.3934ZM460.818 21.9822 460.377 21.9822C459.495 21.9822 458.907 22.4233 458.907 23.5997L458.907 26.2463 457.877 26.2463 457.877 20.953 458.907 20.953 458.907 21.9087C459.274 21.1 459.936 20.8794 460.524 20.8794L460.892 20.8794 460.892 21.9822ZM466.994 24.7024C466.7 25.6582 465.817 26.3934 464.641 26.3934 463.244 26.3934 461.994 25.3641 461.994 23.5261 461.994 21.8352 463.171 20.7324 464.568 20.7324 466.185 20.7324 467.141 21.8352 467.141 23.5261L467.141 23.8937 463.171 23.8937C463.171 24.8495 463.906 25.5112 464.788 25.5112 465.67 25.5112 466.112 25.07 466.259 24.4084L466.994 24.7024ZM465.964 23.0115C465.964 22.2763 465.45 21.6882 464.494 21.6882 463.612 21.6882 463.097 22.3498 463.024 23.0115L465.964 23.0115Z" fill="#404040" fill-rule="nonzero" fill-opacity="1" transform="scale(1.00144 1)"/><path d="M512.282 3.823 583.007 3.823 583.007 40.5826 512.282 40.5826Z" stroke="#404040" stroke-width="2.94077" stroke-linecap="round" stroke-linejoin="round" stroke-miterlimit="10" stroke-opacity="1" fill="#4ED1A1" fill-rule="nonzero" fill-opacity="1" transform="scale(1.00144 1)"/><path d="M528.897 26.2463 528.897 18.4533 533.676 18.4533 533.676 19.4826 530 19.4826 530 21.9822 533.308 21.9822 533.308 23.0115 530 23.0115 530 26.3199 528.897 26.3199ZM539.631 24.7024C539.337 25.6582 538.454 26.3934 537.278 26.3934 535.881 26.3934 534.631 25.3641 534.631 23.5261 534.631 21.8352 535.808 20.7324 537.131 20.7324 538.748 20.7324 539.704 21.8352 539.704 23.5261L539.704 23.8937 535.734 23.8937C535.734 24.8495 536.469 25.5112 537.352 25.5112 538.234 25.5112 538.675 25.07 538.822 24.4084L539.631 24.7024ZM538.601 23.0115C538.601 22.2763 538.087 21.6882 537.131 21.6882 536.249 21.6882 535.734 22.3498 535.661 23.0115L538.601 23.0115ZM542.866 23.2321 544.262 23.0115C544.556 22.938 544.703 22.7909 544.703 22.6439 544.703 22.1293 544.336 21.6882 543.527 21.6882 542.792 21.6882 542.424 22.1293 542.351 22.7909L541.322 22.5704C541.469 21.5411 542.351 20.8794 543.527 20.8794 545.145 20.8794 545.733 21.7617 545.733 22.7909L545.733 25.4376C545.733 25.8787 545.806 26.1728 545.806 26.3199L544.777 26.3199C544.777 26.1728 544.703 25.9523 544.703 25.5847 544.483 25.9523 543.968 26.4669 543.013 26.4669 541.91 26.4669 541.248 25.7317 541.248 24.8495 541.248 23.8937 541.91 23.3056 542.866 23.2321ZM544.703 23.9672 544.703 23.7467 543.086 23.9672C542.645 24.0408 542.351 24.2613 542.351 24.776 542.351 25.1436 542.645 25.5112 543.233 25.5112 543.968 25.5112 544.703 25.1436 544.703 23.9672ZM549.262 20.953 550.438 20.953 550.438 21.9087 549.262 21.9087 549.262 24.7024C549.262 25.2171 549.482 25.4376 549.997 25.4376 550.144 25.4376 550.291 25.4376 550.438 25.3641L550.438 26.2463C550.364 26.2463 550.07 26.3199 549.703 26.3199 548.821 26.3199 548.232 25.7317 548.232 24.776L548.232 21.8352 547.203 21.8352 547.203 20.8794 547.497 20.8794C548.085 20.8794 548.306 20.5118 548.306 20.0707L548.306 19.1885 549.262 19.1885 549.262 20.953ZM554.261 26.3934C553.011 26.3934 552.276 25.4376 552.276 24.2613L552.276 20.953 553.305 20.953 553.305 24.1143C553.305 24.8495 553.673 25.5112 554.482 25.5112 555.29 25.5112 555.731 24.923 555.731 24.1878L555.731 21.0265 556.761 21.0265 556.761 25.3641C556.761 25.8052 556.761 26.1728 556.834 26.3199L555.878 26.3199C555.878 26.1728 555.805 25.8787 555.805 25.6582 555.584 26.1728 554.923 26.3934 554.261 26.3934ZM562.054 21.9822 561.613 21.9822C560.731 21.9822 560.143 22.4233 560.143 23.5997L560.143 26.2463 559.113 26.2463 559.113 20.953 560.143 20.953 560.143 21.9087C560.51 21.1 561.172 20.8794 561.76 20.8794L562.128 20.8794 562.128 21.9822ZM568.303 24.7024C568.009 25.6582 567.127 26.3934 565.951 26.3934 564.554 26.3934 563.304 25.3641 563.304 23.5261 563.304 21.8352 564.48 20.7324 565.877 20.7324 567.494 20.7324 568.45 21.8352 568.45 23.5261L568.45 23.8937 564.48 23.8937C564.48 24.8495 565.215 25.5112 566.098 25.5112 566.98 25.5112 567.421 25.07 567.568 24.4084L568.303 24.7024ZM567.274 23.0115C567.274 22.2763 566.759 21.6882 565.803 21.6882 564.921 21.6882 564.407 22.3498 564.333 23.0115L567.274 23.0115Z" fill="#404040" fill-rule="nonzero" fill-opacity="1" transform="scale(1.00144 1)"/><path d="M62.4178 202.178 62.4178 292.9C62.4178 305.399 72.5634 315.544 85.0617 315.544L155.42 315.544" stroke="#404040" stroke-width="2.94077" stroke-linecap="butt" stroke-linejoin="miter" stroke-miterlimit="10" stroke-opacity="1" fill="none" fill-rule="nonzero" transform="scale(1.00144 1)"/><path d="M155.346 315.471C155.346 321.845 150.178 327.013 143.803 327.013 137.429 327.013 132.261 321.845 132.261 315.471 132.261 309.096 137.429 303.928 143.803 303.928 150.178 303.928 155.346 309.096 155.346 315.471Z" stroke="#404040" stroke-width="2.94077" stroke-linecap="butt" stroke-linejoin="miter" stroke-miterlimit="10" stroke-opacity="1" fill="#B18BE8" fill-rule="nonzero" fill-opacity="1" transform="scale(1.00144 1)"/><path d="M120.939 315.471C120.939 321.886 115.738 327.087 109.323 327.087 102.908 327.087 97.707 321.886 97.707 315.471 97.707 309.055 102.908 303.855 109.323 303.855 115.738 303.855 120.939 309.055 120.939 315.471Z" stroke="#404040" stroke-width="2.94077" stroke-linecap="butt" stroke-linejoin="miter" stroke-miterlimit="10" stroke-opacity="1" fill="#B18BE8" fill-rule="nonzero" fill-opacity="1" transform="scale(1.00144 1)"/><path d="M120.939 225.042C120.939 231.458 115.738 236.658 109.323 236.658 102.908 236.658 97.707 231.458 97.707 225.042 97.707 218.627 102.908 213.426 109.323 213.426 115.738 213.426 120.939 218.627 120.939 225.042Z" stroke="#404040" stroke-width="2.94077" stroke-linecap="round" stroke-linejoin="round" stroke-miterlimit="10" stroke-opacity="1" fill="#FC8363" fill-rule="nonzero" fill-opacity="1" transform="scale(1.00144 1)"/><path d="M394.43 292.9C394.43 305.399 384.285 315.544 371.786 315.544M519.56 292.9C519.56 305.399 529.706 315.544 542.204 315.544L559.113 315.544M417.662 270.256 417.001 270.256C404.502 270.256 394.357 280.402 394.357 292.9M519.56 292.9C519.56 280.402 509.414 270.256 496.916 270.256L417.662 270.256" stroke="#404040" stroke-width="2.94077" stroke-linecap="butt" stroke-linejoin="miter" stroke-miterlimit="10" stroke-opacity="1" fill="none" fill-rule="nonzero" transform="scale(1.00144 1)"/><path d="M485.815 270.256C485.815 276.672 480.614 281.872 474.199 281.872 467.783 281.872 462.583 276.672 462.583 270.256 462.583 263.841 467.783 258.64 474.199 258.64 480.614 258.64 485.815 263.841 485.815 270.256Z" stroke="#404040" stroke-width="2.94077" stroke-linecap="butt" stroke-linejoin="round" stroke-miterlimit="10" stroke-opacity="1" fill="#4CD3D6" fill-rule="nonzero" fill-opacity="1" transform="scale(1.00144 1)"/><path d="M451.408 270.256C451.408 276.672 446.207 281.872 439.792 281.872 433.376 281.872 428.176 276.672 428.176 270.256 428.176 263.841 433.376 258.64 439.792 258.64 446.207 258.64 451.408 263.841 451.408 270.256Z" stroke="#404040" stroke-width="2.94077" stroke-linecap="butt" stroke-linejoin="round" stroke-miterlimit="10" stroke-opacity="1" fill="#4CD3D6" fill-rule="nonzero" fill-opacity="1" transform="scale(1.00144 1)"/><path d="M109.323 327.087 109.323 394.357M120.939 224.748 155.64 224.748M474.199 258.714 474.199 191.444" stroke="#404040" stroke-width="2.94077" stroke-linecap="butt" stroke-linejoin="miter" stroke-miterlimit="10" stroke-opacity="1" fill="none" fill-rule="nonzero" transform="scale(1.00144 1)"/></g></g></svg>