<svg width="589" height="378" xmlns="http://www.w3.org/2000/svg" xmlns:xlink="http://www.w3.org/1999/xlink" xml:space="preserve" overflow="hidden"><g><g><path d="M107.002 4.19183 177.748 4.19183 177.748 40.9623 107.002 40.9623Z" stroke="#404040" stroke-width="2.94163" stroke-linecap="round" stroke-linejoin="round" stroke-miterlimit="10" stroke-opacity="1" fill="#4CD3D6" fill-rule="nonzero" fill-opacity="1" transform="scale(1.00114 1)"/><path d="M125.608 23.8272 124.431 23.8272 124.431 26.9895 123.328 26.9895 123.328 19.1942 126.27 19.1942C127.74 19.1942 128.697 20.2237 128.697 21.5475 128.697 22.6506 127.961 23.5331 126.784 23.7537L128.623 27.063 127.373 27.063 125.608 23.8272ZM126.123 22.8712C127.005 22.8712 127.593 22.3564 127.593 21.5475 127.593 20.7385 127.005 20.2237 126.123 20.2237L124.505 20.2237 124.505 22.8712 126.123 22.8712ZM135.021 25.5187C134.727 26.4747 133.844 27.2101 132.668 27.2101 131.27 27.2101 130.02 26.1805 130.02 24.342 130.02 22.6506 131.197 21.5475 132.594 21.5475 134.212 21.5475 135.168 22.6506 135.168 24.342L135.168 24.7097 131.197 24.7097C131.197 25.6658 131.932 26.3276 132.815 26.3276 133.697 26.3276 134.139 25.8864 134.286 25.2245L135.021 25.5187ZM133.991 23.8272C133.991 23.0918 133.477 22.5035 132.521 22.5035 131.638 22.5035 131.123 23.1654 131.05 23.8272L133.991 23.8272ZM136.933 26.9895 136.933 19.0471 137.963 19.0471 137.963 27.063 136.933 27.063ZM144.875 25.5187C144.581 26.4747 143.699 27.2101 142.522 27.2101 141.125 27.2101 139.875 26.1805 139.875 24.342 139.875 22.6506 141.051 21.5475 142.449 21.5475 144.067 21.5475 145.023 22.6506 145.023 24.342L145.023 24.7097 141.051 24.7097C141.051 25.6658 141.787 26.3276 142.669 26.3276 143.552 26.3276 143.993 25.8864 144.14 25.2245L144.875 25.5187ZM143.846 23.8272C143.846 23.0918 143.331 22.5035 142.375 22.5035 141.493 22.5035 140.978 23.1654 140.904 23.8272L143.846 23.8272ZM148.111 23.9743 149.582 23.7537C149.876 23.6802 150.023 23.5331 150.023 23.386 150.023 22.8712 149.656 22.43 148.847 22.43 148.111 22.43 147.744 22.8712 147.67 23.5331L146.714 23.3125C146.861 22.2829 147.744 21.621 148.92 21.621 150.538 21.621 151.126 22.5035 151.126 23.5331L151.126 26.1805C151.126 26.6218 151.2 26.916 151.2 27.063L150.023 27.063C150.023 26.916 149.95 26.6953 149.95 26.3276 149.729 26.6953 149.214 27.2101 148.258 27.2101 147.155 27.2101 146.493 26.4747 146.493 25.5922 146.493 24.6362 147.155 24.1214 148.111 23.9743ZM149.95 24.7097 149.95 24.4891 148.332 24.7097C147.891 24.7833 147.596 25.0039 147.596 25.5187 147.596 25.8864 147.964 26.2541 148.479 26.2541 149.214 26.3276 149.95 25.8864 149.95 24.7097ZM153.553 25.2981C153.627 25.8864 154.068 26.2541 154.803 26.2541 155.392 26.2541 155.686 25.8864 155.686 25.5187 155.686 25.2245 155.465 24.9304 155.024 24.8568L154.142 24.6362C153.333 24.4891 152.818 23.9008 152.818 23.1654 152.818 22.2829 153.7 21.4739 154.73 21.4739 156.201 21.4739 156.642 22.43 156.716 22.8712L155.833 23.2389C155.76 22.9447 155.539 22.3564 154.73 22.3564 154.215 22.3564 153.847 22.7241 153.847 23.0918 153.847 23.386 154.068 23.6802 154.436 23.7537L155.318 23.9743C156.274 24.1949 156.789 24.7833 156.789 25.5187 156.789 26.2541 156.127 27.1366 154.877 27.1366 153.406 27.1366 152.818 26.1805 152.744 25.5922L153.553 25.2981ZM163.261 25.5187C162.967 26.4747 162.084 27.2101 160.907 27.2101 159.51 27.2101 158.26 26.1805 158.26 24.342 158.26 22.6506 159.437 21.5475 160.76 21.5475 162.378 21.5475 163.334 22.6506 163.334 24.342L163.334 24.7097 159.363 24.7097C159.363 25.6658 160.098 26.3276 160.981 26.3276 161.863 26.3276 162.305 25.8864 162.452 25.2245L163.261 25.5187ZM162.158 23.8272C162.158 23.0918 161.643 22.5035 160.687 22.5035 159.804 22.5035 159.289 23.1654 159.216 23.8272L162.158 23.8272Z" fill="#404040" fill-rule="nonzero" fill-opacity="1" transform="scale(1.00114 1)"/><path d="M208.635 4.19183 279.382 4.19183 279.382 40.9623 208.635 40.9623Z" stroke="#404040" stroke-width="2.94163" stroke-linecap="round" stroke-linejoin="round" stroke-miterlimit="10" stroke-opacity="1" fill="#B18BE8" fill-rule="nonzero" fill-opacity="1" transform="scale(1.00114 1)"/><path d="M223.564 26.9895 223.564 19.1942 226.285 19.1942C228.271 19.1942 230.036 20.5179 230.036 23.0918 230.036 25.6658 228.271 26.9895 226.285 26.9895L223.564 26.9895ZM226.285 26.0335C227.756 26.0335 228.933 25.0774 228.933 23.0918 228.933 21.1062 227.756 20.1502 226.285 20.1502L224.667 20.1502 224.667 26.0335 226.285 26.0335ZM236.581 25.5187C236.287 26.4747 235.404 27.2101 234.228 27.2101 232.83 27.2101 231.58 26.1805 231.58 24.342 231.58 22.6506 232.757 21.5475 234.154 21.5475 235.772 21.5475 236.728 22.6506 236.728 24.342L236.728 24.7097 232.757 24.7097C232.757 25.6658 233.492 26.3276 234.375 26.3276 235.257 26.3276 235.698 25.8864 235.846 25.2245L236.581 25.5187ZM235.551 23.8272C235.551 23.0918 235.037 22.5035 234.081 22.5035 233.198 22.5035 232.683 23.1654 232.61 23.8272L235.551 23.8272ZM241.067 26.9895 240.037 26.9895 237.905 21.6946 239.081 21.6946 240.626 25.8128 242.17 21.6946 243.273 21.6946 241.067 26.9895ZM248.936 25.5187C248.642 26.4747 247.759 27.2101 246.582 27.2101 245.185 27.2101 243.935 26.1805 243.935 24.342 243.935 22.6506 245.112 21.5475 246.509 21.5475 248.127 21.5475 249.083 22.6506 249.083 24.342L249.083 24.7097 245.112 24.7097C245.112 25.6658 245.847 26.3276 246.73 26.3276 247.612 26.3276 248.053 25.8864 248.2 25.2245L248.936 25.5187ZM247.906 23.8272C247.906 23.0918 247.391 22.5035 246.435 22.5035 245.553 22.5035 245.038 23.1654 244.965 23.8272L247.906 23.8272ZM250.848 26.9895 250.848 19.0471 251.877 19.0471 251.877 27.063 250.848 27.063ZM259.158 24.342C259.158 25.9599 258.055 27.1366 256.437 27.1366 254.819 27.1366 253.716 25.9599 253.716 24.342 253.716 22.7241 254.819 21.5475 256.437 21.5475 258.055 21.5475 259.158 22.7241 259.158 24.342ZM258.128 24.342C258.128 23.0918 257.393 22.43 256.51 22.43 255.628 22.43 254.893 23.0918 254.893 24.342 254.893 25.5922 255.702 26.2541 256.51 26.2541 257.319 26.2541 258.128 25.5922 258.128 24.342ZM261.07 29.1222 261.07 21.6946 262.1 21.6946 262.1 22.5035C262.394 21.9887 262.982 21.5475 263.865 21.5475 265.482 21.5475 266.291 22.7977 266.291 24.342 266.291 25.8864 265.409 27.1366 263.791 27.1366 262.982 27.1366 262.32 26.7689 262.1 26.2541L262.1 29.0486 261.07 29.0486ZM263.644 22.5035C262.688 22.5035 262.1 23.3125 262.1 24.342 262.1 25.4451 262.761 26.2541 263.644 26.2541 264.6 26.2541 265.188 25.4451 265.188 24.342 265.188 23.3125 264.6 22.5035 263.644 22.5035Z" fill="#404040" fill-rule="nonzero" fill-opacity="1" transform="scale(1.00114 1)"/><path d="M5.73619 4.19183 76.4825 4.19183 76.4825 40.9623 5.73619 40.9623Z" stroke="#404040" stroke-width="2.94163" stroke-linecap="round" stroke-linejoin="round" stroke-miterlimit="10" stroke-opacity="1" fill="#B3E3FF" fill-rule="nonzero" fill-opacity="1" transform="scale(1.00114 1)"/><path d="M31.2549 26.9895 31.2549 20.8856 28.6074 26.9895 27.6514 26.9895 25.0039 20.8856 25.0039 26.9895 23.9008 26.9895 23.9008 19.1942 25.3716 19.1942 28.0926 25.5922 30.8872 19.1942 32.358 19.1942 32.358 26.9895 31.2549 26.9895ZM35.9615 23.9743 37.4323 23.7537C37.7265 23.6802 37.8735 23.5331 37.8735 23.386 37.8735 22.8712 37.5058 22.43 36.6969 22.43 35.9615 22.43 35.5938 22.8712 35.5202 23.5331L34.4907 23.3125C34.6377 22.2829 35.5202 21.621 36.6969 21.621 38.3148 21.621 38.9031 22.5035 38.9031 23.5331L38.9031 26.1805C38.9031 26.6218 38.9767 26.916 38.9767 27.063L37.9471 27.063C37.9471 26.916 37.8735 26.6953 37.8735 26.3276 37.6529 26.6953 37.1381 27.2101 36.1821 27.2101 35.079 27.2101 34.4171 26.4747 34.4171 25.5922 34.3436 24.6362 35.079 24.1214 35.9615 23.9743ZM37.8 24.7097 37.8 24.4891 36.1821 24.7097C35.7409 24.7833 35.4467 25.0039 35.4467 25.5187 35.4467 25.8864 35.8144 26.2541 36.3292 26.2541 37.1381 26.3276 37.8 25.8864 37.8 24.7097ZM41.477 25.2981C41.5506 25.8864 41.9918 26.2541 42.7272 26.2541 43.3156 26.2541 43.6097 25.8864 43.6097 25.5187 43.6097 25.2245 43.3891 24.9304 42.9479 24.8568L42.0654 24.6362C41.2564 24.4891 40.7416 23.9008 40.7416 23.1654 40.7416 22.2829 41.6241 21.4739 42.6537 21.4739 44.1245 21.4739 44.5658 22.43 44.6393 22.8712L43.7568 23.2389C43.6833 22.9447 43.4626 22.3564 42.6537 22.3564 42.1389 22.3564 41.7712 22.7241 41.7712 23.0918 41.7712 23.386 41.9918 23.6802 42.3595 23.7537L43.242 23.9743C44.1981 24.1949 44.7128 24.7833 44.7128 25.5187 44.7128 26.2541 44.051 27.1366 42.8008 27.1366 41.33 27.1366 40.7416 26.1805 40.6681 25.5922L41.477 25.2981ZM47.9486 21.6946 49.1253 21.6946 49.1253 22.6506 47.9486 22.6506 47.9486 25.4451C47.9486 25.9599 48.1693 26.1805 48.684 26.1805 48.8311 26.1805 48.9782 26.1805 49.1253 26.107L49.1253 26.9895C49.0517 26.9895 48.7576 27.063 48.3899 27.063 47.5074 27.063 46.9191 26.4747 46.9191 25.5187L46.9191 22.577 45.8895 22.577 45.8895 21.621 46.1837 21.621C46.772 21.621 46.9926 21.2533 46.9926 20.8121L46.9926 19.9296 47.9486 19.9296 47.9486 21.6946ZM55.5969 25.5187C55.3027 26.4747 54.4202 27.2101 53.2436 27.2101 51.8463 27.2101 50.5961 26.1805 50.5961 24.342 50.5961 22.6506 51.7728 21.5475 53.17 21.5475 54.7879 21.5475 55.744 22.6506 55.744 24.342L55.744 24.7097 51.7728 24.7097C51.7728 25.6658 52.5082 26.3276 53.3907 26.3276 54.2732 26.3276 54.7144 25.8864 54.8615 25.2245L55.5969 25.5187ZM54.5673 23.8272C54.5673 23.0918 54.0525 22.5035 53.0965 22.5035 52.214 22.5035 51.6992 23.1654 51.6257 23.8272L54.5673 23.8272ZM60.4506 22.7241 60.0093 22.7241C59.1268 22.7241 58.5385 23.1654 58.5385 24.342L58.5385 26.9895 57.5089 26.9895 57.5089 21.6946 58.5385 21.6946 58.5385 22.6506C58.9062 21.8416 59.5681 21.621 60.1564 21.621L60.5241 21.621 60.5241 22.7241Z" fill="#404040" fill-rule="nonzero" fill-opacity="1" transform="scale(1.00114 1)"/><path d="M309.533 4.19183 380.28 4.19183 380.28 40.9623 309.533 40.9623Z" stroke="#404040" stroke-width="2.94163" stroke-linecap="round" stroke-linejoin="round" stroke-miterlimit="10" stroke-opacity="1" fill="#4ED1A1" fill-rule="nonzero" fill-opacity="1" transform="scale(1.00114 1)"/><path d="M326.08 26.6218 326.08 18.8265 330.86 18.8265 330.86 19.856 327.183 19.856 327.183 22.3564 330.493 22.3564 330.493 23.386 327.183 23.386 327.183 26.6953 326.08 26.6953ZM336.817 25.151C336.523 26.107 335.64 26.8424 334.464 26.8424 333.067 26.8424 331.816 25.8128 331.816 23.9743 331.816 22.2829 332.993 21.1798 334.39 21.1798 336.008 21.1798 336.964 22.2829 336.964 23.9743L336.964 24.342 332.993 24.342C332.993 25.2981 333.728 25.9599 334.611 25.9599 335.493 25.9599 335.935 25.5187 336.082 24.8568L336.817 25.151ZM335.788 23.4595C335.788 22.7241 335.273 22.1358 334.317 22.1358 333.434 22.1358 332.919 22.7977 332.846 23.4595L335.788 23.4595ZM340.053 23.6066 341.45 23.386C341.744 23.3125 341.891 23.1654 341.891 23.0183 341.891 22.5035 341.524 22.0623 340.715 22.0623 339.979 22.0623 339.612 22.5035 339.538 23.1654L338.582 22.9447C338.656 21.9152 339.612 21.2533 340.788 21.2533 342.406 21.2533 342.995 22.1358 342.995 23.1654L342.995 25.7393C342.995 26.1805 343.068 26.4747 343.068 26.6218L341.965 26.6218C341.965 26.4747 341.891 26.2541 341.891 25.8864 341.671 26.2541 341.156 26.7689 340.2 26.7689 339.097 26.7689 338.435 26.0335 338.435 25.151 338.435 24.2685 339.097 23.7537 340.053 23.6066ZM341.891 24.342 341.891 24.1214 340.274 24.342C339.832 24.4156 339.538 24.6362 339.538 25.151 339.538 25.5187 339.832 25.8864 340.421 25.8864 341.156 25.9599 341.891 25.5187 341.891 24.342ZM346.451 21.3268 347.628 21.3268 347.628 22.2829 346.451 22.2829 346.451 25.0039C346.451 25.5187 346.672 25.7393 347.186 25.7393 347.333 25.7393 347.481 25.7393 347.628 25.6658L347.628 26.5482C347.554 26.5482 347.26 26.6218 346.892 26.6218 346.01 26.6218 345.421 26.0335 345.421 25.0774L345.421 22.1358 344.392 22.1358 344.392 21.3268 344.686 21.3268C345.274 21.3268 345.495 20.9591 345.495 20.5179L345.495 19.6354 346.451 19.6354 346.451 21.3268ZM351.452 26.7689C350.202 26.7689 349.466 25.8128 349.466 24.6362L349.466 21.3268 350.496 21.3268 350.496 24.4891C350.496 25.2245 350.863 25.8864 351.672 25.8864 352.481 25.8864 352.923 25.2981 352.923 24.5626L352.923 21.3268 353.952 21.3268 353.952 25.6658C353.952 26.107 353.952 26.4747 354.026 26.6218L352.996 26.6218C352.996 26.4747 352.923 26.1805 352.923 25.9599 352.775 26.5482 352.114 26.7689 351.452 26.7689ZM359.247 22.3564 358.806 22.3564C357.923 22.3564 357.335 22.7977 357.335 23.9743L357.335 26.6218 356.305 26.6218 356.305 21.3268 357.335 21.3268 357.335 22.2829C357.703 21.4739 358.365 21.2533 358.953 21.2533L359.321 21.2533 359.321 22.3564ZM365.498 25.151C365.204 26.107 364.321 26.8424 363.145 26.8424 361.747 26.8424 360.497 25.8128 360.497 23.9743 360.497 22.2829 361.674 21.1798 363.071 21.1798 364.689 21.1798 365.645 22.2829 365.645 23.9743L365.645 24.342 361.674 24.342C361.674 25.2981 362.409 25.9599 363.292 25.9599 364.174 25.9599 364.616 25.5187 364.763 24.8568L365.498 25.151ZM364.468 23.4595C364.468 22.7241 363.954 22.1358 362.998 22.1358 362.115 22.1358 361.6 22.7977 361.527 23.4595L364.468 23.4595Z" fill="#404040" fill-rule="nonzero" fill-opacity="1" transform="scale(1.00114 1)"/><path d="M410.505 4.19183 481.251 4.19183 481.251 40.9623 410.505 40.9623Z" stroke="#404040" stroke-width="2.94163" stroke-linecap="round" stroke-linejoin="round" stroke-miterlimit="10" stroke-opacity="1" fill="#4ED1A1" fill-rule="nonzero" fill-opacity="1" transform="scale(1.00114 1)"/><path d="M427.125 26.6218 427.125 18.8265 431.905 18.8265 431.905 19.856 428.228 19.856 428.228 22.3564 431.538 22.3564 431.538 23.386 428.228 23.386 428.228 26.6953 427.125 26.6953ZM437.862 25.151C437.568 26.107 436.686 26.8424 435.509 26.8424 434.112 26.8424 432.861 25.8128 432.861 23.9743 432.861 22.2829 434.038 21.1798 435.435 21.1798 437.053 21.1798 438.009 22.2829 438.009 23.9743L438.009 24.342 433.891 24.342C433.891 25.2981 434.626 25.9599 435.509 25.9599 436.391 25.9599 436.833 25.5187 436.98 24.8568L437.862 25.151ZM436.833 23.4595C436.833 22.7241 436.318 22.1358 435.362 22.1358 434.479 22.1358 433.965 22.7977 433.891 23.4595L436.833 23.4595ZM441.025 23.6066 442.495 23.386C442.789 23.3125 442.937 23.1654 442.937 23.0183 442.937 22.5035 442.569 22.0623 441.76 22.0623 441.025 22.0623 440.657 22.5035 440.583 23.1654L439.627 22.9447C439.774 21.9152 440.657 21.2533 441.833 21.2533 443.451 21.2533 444.04 22.1358 444.04 23.1654L444.04 25.7393C444.04 26.1805 444.113 26.4747 444.113 26.6218L443.084 26.6218C443.084 26.4747 443.01 26.2541 443.01 25.8864 442.789 26.2541 442.275 26.7689 441.319 26.7689 440.216 26.7689 439.554 26.0335 439.554 25.151 439.407 24.2685 440.142 23.7537 441.025 23.6066ZM442.863 24.342 442.863 24.1214 441.245 24.342C440.804 24.4156 440.51 24.6362 440.51 25.151 440.51 25.5187 440.877 25.8864 441.392 25.8864 442.201 25.9599 442.863 25.5187 442.863 24.342ZM447.496 21.3268 448.673 21.3268 448.673 22.2829 447.496 22.2829 447.496 25.0039C447.496 25.5187 447.717 25.7393 448.232 25.7393 448.379 25.7393 448.526 25.7393 448.673 25.6658L448.673 26.5482C448.599 26.5482 448.305 26.6218 447.937 26.6218 447.055 26.6218 446.467 26.0335 446.467 25.0774L446.467 22.1358 445.437 22.1358 445.437 21.3268 445.731 21.3268C446.319 21.3268 446.54 20.9591 446.54 20.5179L446.54 19.6354 447.496 19.6354 447.496 21.3268ZM452.497 26.7689C451.247 26.7689 450.511 25.8128 450.511 24.6362L450.511 21.3268 451.541 21.3268 451.541 24.4891C451.541 25.2245 451.909 25.8864 452.717 25.8864 453.526 25.8864 453.968 25.2981 453.968 24.5626L453.968 21.3268 454.997 21.3268 454.997 25.6658C454.997 26.107 454.997 26.4747 455.071 26.6218L454.041 26.6218C454.041 26.4747 453.968 26.1805 453.968 25.9599 453.747 26.5482 453.085 26.7689 452.497 26.7689ZM460.292 22.3564 459.851 22.3564C458.968 22.3564 458.38 22.7977 458.38 23.9743L458.38 26.6218 457.351 26.6218 457.351 21.3268 458.38 21.3268 458.38 22.2829C458.748 21.4739 459.41 21.2533 459.998 21.2533L460.366 21.2533 460.366 22.3564ZM466.543 25.151C466.249 26.107 465.367 26.8424 464.19 26.8424 462.793 26.8424 461.542 25.8128 461.542 23.9743 461.542 22.2829 462.719 21.1798 464.116 21.1798 465.734 21.1798 466.69 22.2829 466.69 23.9743L466.69 24.342 462.719 24.342C462.719 25.2981 463.454 25.9599 464.337 25.9599 465.219 25.9599 465.661 25.5187 465.808 24.8568L466.543 25.151ZM465.44 23.4595C465.44 22.7241 464.925 22.1358 463.969 22.1358 463.087 22.1358 462.572 22.7977 462.498 23.4595L465.44 23.4595Z" fill="#404040" fill-rule="nonzero" fill-opacity="1" transform="scale(1.00114 1)"/><path d="M312.034 293.502C312.034 281 322.182 270.851 334.684 270.851" stroke="#404040" stroke-width="2.94163" stroke-linecap="butt" stroke-linejoin="miter" stroke-miterlimit="10" stroke-opacity="1" fill="none" fill-rule="nonzero" transform="scale(1.00114 1)"/><path d="M186.794 293.502C186.794 281 176.645 270.851 164.143 270.851M120.828 361.38 278.205 361.38" stroke="#404040" stroke-width="2.94163" stroke-linecap="butt" stroke-linejoin="miter" stroke-miterlimit="10" stroke-opacity="1" fill="none" fill-rule="nonzero" transform="scale(1.00114 1)"/><path d="M243.788 361.38C243.788 367.797 238.586 372.999 232.168 372.999 225.751 372.999 220.549 367.797 220.549 361.38 220.549 354.962 225.751 349.76 232.168 349.76 238.586 349.76 243.788 354.963 243.788 361.38Z" stroke="#404040" stroke-width="2.94163" stroke-linecap="butt" stroke-linejoin="miter" stroke-miterlimit="10" stroke-opacity="1" fill="#4ED1A1" fill-rule="nonzero" fill-opacity="1" transform="scale(1.00114 1)"/><path d="M278.205 361.38C278.205 367.797 273.003 372.999 266.586 372.999 260.168 372.999 254.966 367.797 254.966 361.38 254.966 354.962 260.168 349.76 266.586 349.76 273.003 349.76 278.205 354.963 278.205 361.38Z" stroke="#404040" stroke-width="2.94163" stroke-linecap="butt" stroke-linejoin="miter" stroke-miterlimit="10" stroke-opacity="1" fill="#4ED1A1" fill-rule="nonzero" fill-opacity="1" transform="scale(1.00114 1)"/><path d="M189.809 361.38C189.809 367.797 184.607 372.999 178.189 372.999 171.772 372.999 166.57 367.797 166.57 361.38 166.57 354.962 171.772 349.76 178.189 349.76 184.607 349.76 189.809 354.963 189.809 361.38Z" stroke="#404040" stroke-width="2.94163" stroke-linecap="butt" stroke-linejoin="miter" stroke-miterlimit="10" stroke-opacity="1" fill="#4ED1A1" fill-rule="nonzero" fill-opacity="1" transform="scale(1.00114 1)"/><path d="M570.751 270.924 132.153 270.924" stroke="#404040" stroke-width="2.94163" stroke-linecap="butt" stroke-linejoin="miter" stroke-miterlimit="10" stroke-opacity="1" fill="none" fill-rule="nonzero" transform="scale(1.00114 1)"/><path d="M368.366 270.924C368.366 277.342 363.164 282.544 356.747 282.544 350.329 282.544 345.127 277.342 345.127 270.924 345.127 264.507 350.329 259.305 356.747 259.305 363.164 259.305 368.366 264.507 368.366 270.924Z" stroke="#404040" stroke-width="2.94163" stroke-linecap="butt" stroke-linejoin="miter" stroke-miterlimit="10" stroke-opacity="1" fill="#B18BE8" fill-rule="nonzero" fill-opacity="1" transform="scale(1.00114 1)"/><path d="M243.788 270.924C243.788 277.342 238.586 282.544 232.168 282.544 225.751 282.544 220.549 277.342 220.549 270.924 220.549 264.507 225.751 259.305 232.168 259.305 238.586 259.305 243.788 264.507 243.788 270.924Z" stroke="#404040" stroke-width="2.94163" stroke-linecap="butt" stroke-linejoin="miter" stroke-miterlimit="10" stroke-opacity="1" fill="#B18BE8" fill-rule="nonzero" fill-opacity="1" transform="scale(1.00114 1)"/><path d="M582.37 270.924C582.37 277.342 577.168 282.544 570.751 282.544 564.333 282.544 559.131 277.342 559.131 270.924 559.131 264.507 564.333 259.305 570.751 259.305 577.168 259.305 582.37 264.507 582.37 270.924Z" stroke="#404040" stroke-width="2.94163" stroke-linecap="butt" stroke-linejoin="miter" stroke-miterlimit="10" stroke-opacity="1" fill="#B18BE8" fill-rule="nonzero" fill-opacity="1" transform="scale(1.00114 1)"/><path d="M186.794 293.502C186.794 306.004 196.942 316.152 209.444 316.152L288.795 316.152" stroke="#404040" stroke-width="2.94163" stroke-linecap="butt" stroke-linejoin="miter" stroke-miterlimit="10" stroke-opacity="1" fill="none" fill-rule="nonzero" transform="scale(1.00114 1)"/><path d="M243.788 316.152C243.788 322.569 238.586 327.772 232.168 327.772 225.751 327.772 220.549 322.569 220.549 316.152 220.549 309.735 225.751 304.533 232.168 304.533 238.586 304.533 243.788 309.735 243.788 316.152Z" stroke="#404040" stroke-width="2.94163" stroke-linecap="butt" stroke-linejoin="miter" stroke-miterlimit="10" stroke-opacity="1" fill="#4ED1A1" fill-rule="nonzero" fill-opacity="1" transform="scale(1.00114 1)"/><path d="M278.205 316.152C278.205 322.569 273.003 327.772 266.586 327.772 260.168 327.772 254.966 322.569 254.966 316.152 254.966 309.735 260.168 304.533 266.586 304.533 273.003 304.533 278.205 309.735 278.205 316.152Z" stroke="#404040" stroke-width="2.94163" stroke-linecap="butt" stroke-linejoin="miter" stroke-miterlimit="10" stroke-opacity="1" fill="#4ED1A1" fill-rule="nonzero" fill-opacity="1" transform="scale(1.00114 1)"/><path d="M288.721 316.152 289.383 316.152C301.885 316.152 311.96 306.004 311.96 293.502" stroke="#404040" stroke-width="2.94163" stroke-linecap="butt" stroke-linejoin="miter" stroke-miterlimit="10" stroke-opacity="1" fill="none" fill-rule="nonzero" transform="scale(1.00114 1)"/><path d="M43.4626 225.697 15.9584 225.697" stroke="#CCCCCC" stroke-width="2.94163" stroke-linecap="round" stroke-linejoin="round" stroke-miterlimit="4" stroke-dasharray="0 11.0207" stroke-opacity="1" fill="none" fill-rule="nonzero" transform="scale(1.00114 1)"/><path d="" stroke="#CCCCCC" stroke-width="2.94163" stroke-linecap="round" stroke-linejoin="round" stroke-miterlimit="4" stroke-opacity="1" fill="none" fill-rule="nonzero" transform="scale(1.00114 1)"/><path d="M388.884 225.697 74.5704 225.697" stroke="#CCCCCC" stroke-width="2.94163" stroke-linecap="round" stroke-linejoin="round" stroke-miterlimit="4" stroke-dasharray="0 10.3044" stroke-opacity="1" fill="none" fill-rule="nonzero" transform="scale(1.00114 1)"/><path d="" stroke="#CCCCCC" stroke-width="2.94163" stroke-linecap="round" stroke-linejoin="round" stroke-miterlimit="4" stroke-opacity="1" fill="none" fill-rule="nonzero" transform="scale(1.00114 1)"/><path d="M559.867 225.697 521.846 225.697" stroke="#CCCCCC" stroke-width="2.94163" stroke-linecap="round" stroke-linejoin="round" stroke-miterlimit="4" stroke-dasharray="0 10.875" stroke-opacity="1" fill="none" fill-rule="nonzero" transform="scale(1.00114 1)"/><path d="" stroke="#CCCCCC" stroke-width="2.94163" stroke-linecap="round" stroke-linejoin="round" stroke-miterlimit="4" stroke-opacity="1" fill="none" fill-rule="nonzero" transform="scale(1.00114 1)"/><path d="M559.719 180.469 499.195 180.469" stroke="#CCCCCC" stroke-width="2.94163" stroke-linecap="round" stroke-linejoin="round" stroke-miterlimit="4" stroke-dasharray="0 11.0041" stroke-opacity="1" fill="none" fill-rule="nonzero" transform="scale(1.00114 1)"/><path d="M62.3626 203.046C62.3626 190.544 52.214 180.396 39.7121 180.396" stroke="#404040" stroke-width="2.94163" stroke-linecap="butt" stroke-linejoin="miter" stroke-miterlimit="10" stroke-opacity="1" fill="none" fill-rule="nonzero" transform="scale(1.00114 1)"/><path d="M120.901 361.38C120.901 367.797 115.699 372.999 109.282 372.999 102.864 372.999 97.6622 367.797 97.6622 361.38 97.6622 354.962 102.864 349.76 109.282 349.76 115.699 349.76 120.901 354.963 120.901 361.38Z" stroke="#404040" stroke-width="2.94163" stroke-linecap="butt" stroke-linejoin="miter" stroke-miterlimit="10" stroke-opacity="1" fill="#4ED1A1" fill-rule="nonzero" fill-opacity="1" transform="scale(1.00114 1)"/><path d="M474.265 180.469 28.7545 180.469" stroke="#404040" stroke-width="2.94163" stroke-linecap="butt" stroke-linejoin="miter" stroke-miterlimit="10" stroke-opacity="1" fill="none" fill-rule="nonzero" transform="scale(1.00114 1)"/><path d="M28.7545 180.469C28.7545 186.887 23.5523 192.089 17.135 192.089 10.7178 192.089 5.51556 186.886 5.51556 180.469 5.51556 174.052 10.7178 168.85 17.135 168.85 23.5523 168.85 28.7545 174.052 28.7545 180.469Z" stroke="#404040" stroke-width="2.94163" stroke-linecap="butt" stroke-linejoin="miter" stroke-miterlimit="10" stroke-opacity="1" fill="#B3E3FF" fill-rule="nonzero" fill-opacity="1" transform="scale(1.00114 1)"/><path d="M243.788 180.469C243.788 186.887 238.586 192.089 232.168 192.089 225.751 192.089 220.549 186.886 220.549 180.469 220.549 174.052 225.751 168.85 232.168 168.85 238.586 168.85 243.788 174.052 243.788 180.469Z" stroke="#404040" stroke-width="2.94163" stroke-linecap="butt" stroke-linejoin="miter" stroke-miterlimit="10" stroke-opacity="1" fill="#B3E3FF" fill-rule="nonzero" fill-opacity="1" transform="scale(1.00114 1)"/><path d="M485.884 180.469C485.884 186.887 480.682 192.089 474.265 192.089 467.848 192.089 462.646 186.886 462.646 180.469 462.646 174.052 467.848 168.85 474.265 168.85 480.682 168.85 485.884 174.052 485.884 180.469Z" stroke="#404040" stroke-width="2.94163" stroke-linecap="butt" stroke-linejoin="miter" stroke-miterlimit="10" stroke-opacity="1" fill="#B3E3FF" fill-rule="nonzero" fill-opacity="1" transform="scale(1.00114 1)"/><path d="M35.9615 102.884 67.2163 102.884 67.2163 130.461 35.9615 130.461Z" stroke="#404040" stroke-width="2.94163" stroke-linecap="round" stroke-linejoin="round" stroke-miterlimit="10" stroke-opacity="1" fill="#B3E3FF" fill-rule="nonzero" fill-opacity="1" transform="scale(1.00114 1)"/><path d="M45.8895 119.945 45.007 119.945 43.1685 115.312 44.1981 115.312 45.5218 118.842 46.8455 115.312 47.8016 115.312 45.8895 119.945ZM49.3459 114.65C49.7136 114.062 50.3755 113.621 51.258 113.621 52.1405 113.621 52.7288 113.988 53.17 114.65 53.6113 115.239 53.7584 116.047 53.7584 116.93 53.7584 117.812 53.6113 118.548 53.17 119.21 52.8023 119.798 52.1405 120.239 51.258 120.239 50.3755 120.239 49.7872 119.872 49.3459 119.21 48.9047 118.621 48.7576 117.812 48.7576 116.93 48.7576 116.047 48.9782 115.239 49.3459 114.65ZM50.3019 118.842C50.5226 119.063 50.8167 119.21 51.258 119.21 51.6992 119.21 51.9934 119.063 52.214 118.842 52.5817 118.474 52.7288 117.812 52.7288 116.856 52.7288 115.9 52.5817 115.239 52.214 114.871 51.9934 114.65 51.6992 114.503 51.258 114.503 50.8167 114.503 50.5226 114.65 50.3019 114.871 49.9342 115.239 49.7872 115.9 49.7872 116.856 49.7872 117.812 49.9342 118.474 50.3019 118.842ZM55.5969 118.695C55.9646 118.695 56.2588 118.989 56.2588 119.357 56.2588 119.725 55.9646 120.019 55.5969 120.019 55.2292 120.019 54.935 119.725 54.935 119.357 54.935 118.989 55.2292 118.695 55.5969 118.695ZM58.5385 119.945 58.5385 115.606 57.0677 115.606 57.0677 114.944C57.9502 114.944 58.5385 114.43 58.6856 113.768L59.4946 113.768 59.4946 119.945 58.5385 119.945Z" fill="#404040" fill-rule="nonzero" fill-opacity="1" transform="scale(1.00114 1)"/><path d="M51.6257 155.539 51.6257 142.596M57.5825 150.759 51.6257 156.716 45.5953 150.759" stroke="#404040" stroke-width="2.94163" stroke-linecap="round" stroke-linejoin="round" stroke-miterlimit="10" stroke-opacity="1" fill="none" fill-rule="nonzero" transform="scale(1.00114 1)"/><path d="M216.504 102.884 247.759 102.884 247.759 130.461 216.504 130.461Z" stroke="#404040" stroke-width="2.94163" stroke-linecap="round" stroke-linejoin="round" stroke-miterlimit="10" stroke-opacity="1" fill="#B3E3FF" fill-rule="nonzero" fill-opacity="1" transform="scale(1.00114 1)"/><path d="M225.329 119.945 224.447 119.945 222.608 115.312 223.638 115.312 224.961 118.842 226.285 115.312 227.241 115.312 225.329 119.945ZM228.712 114.65C229.08 114.062 229.742 113.621 230.624 113.621 231.507 113.621 232.095 113.988 232.536 114.65 232.977 115.239 233.125 116.047 233.125 116.93 233.125 117.812 232.977 118.548 232.536 119.21 232.168 119.798 231.507 120.239 230.624 120.239 229.742 120.239 229.153 119.872 228.712 119.21 228.271 118.621 228.124 117.812 228.124 116.93 228.124 116.047 228.344 115.239 228.712 114.65ZM229.668 118.842C229.889 119.063 230.183 119.21 230.624 119.21 231.065 119.21 231.36 119.063 231.58 118.842 231.948 118.474 232.095 117.812 232.095 116.856 232.095 115.9 231.948 115.239 231.58 114.871 231.36 114.65 231.065 114.503 230.624 114.503 230.183 114.503 229.889 114.65 229.668 114.871 229.3 115.239 229.153 115.9 229.153 116.856 229.153 117.812 229.3 118.474 229.668 118.842ZM234.963 118.695C235.331 118.695 235.625 118.989 235.625 119.357 235.625 119.725 235.331 120.019 234.963 120.019 234.595 120.019 234.301 119.725 234.301 119.357 234.301 118.989 234.595 118.695 234.963 118.695ZM237.243 115.9 237.243 115.68C237.243 114.65 238.052 113.694 239.375 113.694 240.699 113.694 241.435 114.577 241.435 115.606 241.435 116.415 240.993 117.077 240.258 117.518L239.008 118.327C238.64 118.548 238.346 118.842 238.272 119.21L241.435 119.21 241.435 120.092 237.096 120.092C237.096 119.063 237.537 118.327 238.567 117.592L239.596 116.93C240.184 116.562 240.479 116.121 240.479 115.606 240.479 115.018 240.111 114.503 239.302 114.503 238.493 114.503 238.125 115.091 238.125 115.753L238.125 116.047 237.243 115.9Z" fill="#404040" fill-rule="nonzero" fill-opacity="1" transform="scale(1.00114 1)"/><path d="M232.168 155.539 232.168 142.596M238.125 150.759 232.168 156.716 226.138 150.759" stroke="#404040" stroke-width="2.94163" stroke-linecap="round" stroke-linejoin="round" stroke-miterlimit="10" stroke-opacity="1" fill="none" fill-rule="nonzero" transform="scale(1.00114 1)"/><path d="M458.601 102.884 489.856 102.884 489.856 130.461 458.601 130.461Z" stroke="#404040" stroke-width="2.94163" stroke-linecap="round" stroke-linejoin="round" stroke-miterlimit="10" stroke-opacity="1" fill="#B3E3FF" fill-rule="nonzero" fill-opacity="1" transform="scale(1.00114 1)"/><path d="M468.235 119.945 467.352 119.945 465.514 115.312 466.543 115.312 467.867 118.842 469.191 115.312 470.147 115.312 468.235 119.945ZM472.353 119.945 472.353 115.606 470.882 115.606 470.882 114.944C471.765 114.944 472.353 114.43 472.5 113.768L473.309 113.768 473.309 119.945 472.353 119.945ZM475.736 118.695C476.104 118.695 476.398 118.989 476.398 119.357 476.398 119.725 476.104 120.019 475.736 120.019 475.368 120.019 475.074 119.725 475.074 119.357 475.074 118.989 475.295 118.695 475.736 118.695ZM478.383 114.65C478.751 114.062 479.413 113.621 480.295 113.621 481.178 113.621 481.766 113.988 482.207 114.65 482.649 115.239 482.796 116.047 482.796 116.93 482.796 117.812 482.649 118.548 482.207 119.21 481.84 119.798 481.178 120.239 480.295 120.239 479.413 120.239 478.824 119.872 478.383 119.21 477.942 118.621 477.795 117.812 477.795 116.93 477.795 116.047 477.942 115.239 478.383 114.65ZM479.266 118.842C479.486 119.063 479.781 119.21 480.222 119.21 480.663 119.21 480.957 119.063 481.178 118.842 481.546 118.474 481.693 117.812 481.693 116.856 481.693 115.9 481.546 115.239 481.178 114.871 480.957 114.65 480.663 114.503 480.222 114.503 479.781 114.503 479.486 114.65 479.266 114.871 478.898 115.239 478.751 115.9 478.751 116.856 478.751 117.812 478.898 118.474 479.266 118.842Z" fill="#404040" fill-rule="nonzero" fill-opacity="1" transform="scale(1.00114 1)"/><path d="M474.265 155.539 474.265 142.596M480.222 150.759 474.265 156.716 468.308 150.759" stroke="#404040" stroke-width="2.94163" stroke-linecap="round" stroke-linejoin="round" stroke-miterlimit="10" stroke-opacity="1" fill="none" fill-rule="nonzero" transform="scale(1.00114 1)"/><path d="M47.2868 270.924 15.0023 270.924" stroke="#CCCCCC" stroke-width="2.94163" stroke-linecap="round" stroke-linejoin="round" stroke-miterlimit="4" stroke-dasharray="0 9.22423" stroke-opacity="1" fill="none" fill-rule="nonzero" transform="scale(1.00114 1)"/><path d="" stroke="#CCCCCC" stroke-width="2.94163" stroke-linecap="round" stroke-linejoin="round" stroke-miterlimit="4" stroke-opacity="1" fill="none" fill-rule="nonzero" transform="scale(1.00114 1)"/><path d="M181.499 316.152 15.4436 316.152" stroke="#CCCCCC" stroke-width="2.94163" stroke-linecap="round" stroke-linejoin="round" stroke-miterlimit="4" stroke-dasharray="0 10.0636" stroke-opacity="1" fill="none" fill-rule="nonzero" transform="scale(1.00114 1)"/><path d="" stroke="#CCCCCC" stroke-width="2.94163" stroke-linecap="round" stroke-linejoin="round" stroke-miterlimit="4" stroke-opacity="1" fill="none" fill-rule="nonzero" transform="scale(1.00114 1)"/><path d="M560.602 316.152 312.475 316.152" stroke="#CCCCCC" stroke-width="2.94163" stroke-linecap="round" stroke-linejoin="round" stroke-miterlimit="4" stroke-dasharray="0 10.1278" stroke-opacity="1" fill="none" fill-rule="nonzero" transform="scale(1.00114 1)"/><path d="" stroke="#CCCCCC" stroke-width="2.94163" stroke-linecap="round" stroke-linejoin="round" stroke-miterlimit="4" stroke-opacity="1" fill="none" fill-rule="nonzero" transform="scale(1.00114 1)"/><path d="M80.6743 361.38 15.4436 361.38" stroke="#CCCCCC" stroke-width="2.94163" stroke-linecap="round" stroke-linejoin="round" stroke-miterlimit="4" stroke-dasharray="0 10.0377" stroke-opacity="1" fill="none" fill-rule="nonzero" transform="scale(1.00114 1)"/><path d="" stroke="#CCCCCC" stroke-width="2.94163" stroke-linecap="round" stroke-linejoin="round" stroke-miterlimit="4" stroke-opacity="1" fill="none" fill-rule="nonzero" transform="scale(1.00114 1)"/><path d="M560.528 361.38 289.53 361.38" stroke="#CCCCCC" stroke-width="2.94163" stroke-linecap="round" stroke-linejoin="round" stroke-miterlimit="4" stroke-dasharray="0 10.2273" stroke-opacity="1" fill="none" fill-rule="nonzero" transform="scale(1.00114 1)"/><path d="M62.3626 202.752 62.3626 248.274C62.3626 260.776 72.5113 270.924 85.0132 270.924L155.392 270.924" stroke="#404040" stroke-width="2.94163" stroke-linecap="butt" stroke-linejoin="miter" stroke-miterlimit="10" stroke-opacity="1" fill="none" fill-rule="nonzero" transform="scale(1.00114 1)"/><path d="M155.318 270.924C155.318 277.301 150.149 282.47 143.772 282.47 137.396 282.47 132.226 277.301 132.226 270.924 132.226 264.548 137.396 259.379 143.772 259.379 150.149 259.379 155.318 264.548 155.318 270.924Z" stroke="#404040" stroke-width="2.94163" stroke-linecap="butt" stroke-linejoin="miter" stroke-miterlimit="10" stroke-opacity="1" fill="#B18BE8" fill-rule="nonzero" fill-opacity="1" transform="scale(1.00114 1)"/><path d="M120.901 270.924C120.901 277.342 115.699 282.544 109.282 282.544 102.864 282.544 97.6622 277.342 97.6622 270.924 97.6622 264.507 102.864 259.305 109.282 259.305 115.699 259.305 120.901 264.507 120.901 270.924Z" stroke="#404040" stroke-width="2.94163" stroke-linecap="butt" stroke-linejoin="miter" stroke-miterlimit="10" stroke-opacity="1" fill="#B18BE8" fill-rule="nonzero" fill-opacity="1" transform="scale(1.00114 1)"/><path d="M394.4 248.274C394.4 260.776 384.251 270.924 371.823 270.924M519.64 248.274C519.64 260.776 529.788 270.924 542.29 270.924L559.205 270.924M417.639 225.697 416.977 225.697C404.475 225.697 394.326 235.846 394.326 248.347M519.64 248.274C519.64 235.772 509.491 225.623 496.989 225.623L417.639 225.623" stroke="#404040" stroke-width="2.94163" stroke-linecap="butt" stroke-linejoin="miter" stroke-miterlimit="10" stroke-opacity="1" fill="none" fill-rule="nonzero" transform="scale(1.00114 1)"/><path d="M485.884 225.697C485.884 232.114 480.682 237.316 474.265 237.316 467.848 237.316 462.646 232.114 462.646 225.697 462.646 219.28 467.848 214.077 474.265 214.077 480.682 214.077 485.884 219.28 485.884 225.697Z" stroke="#404040" stroke-width="2.94163" stroke-linecap="butt" stroke-linejoin="round" stroke-miterlimit="10" stroke-opacity="1" fill="#4CD3D6" fill-rule="nonzero" fill-opacity="1" transform="scale(1.00114 1)"/><path d="M451.394 225.697C451.394 232.114 446.192 237.316 439.774 237.316 433.357 237.316 428.155 232.114 428.155 225.697 428.155 219.28 433.357 214.077 439.774 214.077 446.192 214.077 451.394 219.28 451.394 225.697Z" stroke="#404040" stroke-width="2.94163" stroke-linecap="butt" stroke-linejoin="round" stroke-miterlimit="10" stroke-opacity="1" fill="#4CD3D6" fill-rule="nonzero" fill-opacity="1" transform="scale(1.00114 1)"/><path d="M109.282 282.47 109.282 349.76M474.265 214.077 474.265 192.015" stroke="#404040" stroke-width="2.94163" stroke-linecap="butt" stroke-linejoin="miter" stroke-miterlimit="10" stroke-opacity="1" fill="none" fill-rule="nonzero" transform="scale(1.00114 1)"/></g></g></svg>